      <svg
        xmlns:dc="http://purl.org/dc/elements/1.1/"
        xmlns:cc="http://creativecommons.org/ns#"
        xmlns:rdf="http://www.w3.org/1999/02/22-rdf-syntax-ns#"
        xmlns:svg="http://www.w3.org/2000/svg"
        xmlns="http://www.w3.org/2000/svg"
        xmlns:xlink="http://www.w3.org/1999/xlink"
        id="svg65382"
        viewBox="0 0 1024 768"
        height="768px"
        width="1024px"
        version="1.1"
      >
        <metadata id="metadata65388">
          <rdf:rdf>
            <cc:work rdf:about="">
              <dc:format>image/svg+xml</dc:format>
              <dc:type
                rdf:resource="http://purl.org/dc/dcmitype/StillImage"
              ></dc:type>
            </cc:work>
          </rdf:rdf>
        </metadata>
        <defs id="defs65386"></defs>
        <linearGradient
          spreadMethod="pad"
          y2="30%"
          x2="-10%"
          y1="120%"
          x1="30%"
          id="3d_gradient2-logo-f29bd47c-b52c-4f7b-bb82-5240b65a7bf2"
        >
          <stop
            id="stop65363"
            stop-opacity="1"
            stop-color="#ffffff"
            offset="0%"
          ></stop>
          <stop
            id="stop65365"
            stop-opacity="1"
            stop-color="#000000"
            offset="100%"
          ></stop>
        </linearGradient>
        <linearGradient
          gradientTransform="rotate(-30)"
          spreadMethod="pad"
          y2="30%"
          x2="-10%"
          y1="120%"
          x1="30%"
          id="3d_gradient3-logo-f29bd47c-b52c-4f7b-bb82-5240b65a7bf2"
        >
          <stop
            id="stop65368"
            stop-opacity="1"
            stop-color="#ffffff"
            offset="0%"
          ></stop>
          <stop
            id="stop65370"
            stop-opacity="1"
            stop-color="#cccccc"
            offset="50%"
          ></stop>
          <stop
            id="stop65372"
            stop-opacity="1"
            stop-color="#000000"
            offset="100%"
          ></stop>
        </linearGradient>
        <g id="logo-group">
          <image
            xlink:href=""
            id="container"
            x="272"
            y="144"
            width="480"
            height="480"
            style="display: none"
            transform="translate(0 0)"
          ></image>
          <g id="logo-center" transform="translate(0 0)">
            <image
              xlink:href=""
              id="icon_container"
              x="0"
              y="0"
              style="display: none"
            ></image>
            <g
              id="slogan"
              style="
                font-style: oblique;
                font-weight: 600;
                font-size: 32px;
                line-height: 1;
                font-family: Lora;
                font-variant-ligatures: none;
                text-align: center;
                text-anchor: middle;
              "
              transform="translate(0 0)"
            ></g>
            <g
              id="title"
              style="
                font-style: normal;
                font-weight: normal;
                font-size: 72px;
                line-height: 1;
                font-family: 'Brandmark Script 1 Shadow';
                font-variant-ligatures: normal;
                text-align: center;
                text-anchor: middle;
              "
              transform="translate(0 0)"
            >
              <g
                id="path65391"
                aria-label="F"
                transform="translate(0 349.82200953) translate(311.23406892 -24.41356684) scale(2.86) translate(-446.2361 40.007294)"
              >
                <path
                  class="c1"
                  d="M87.8069,100.86517c0.40881-0.11517,0.95422-0.2168,1.59338-0.30365 c-0.14618,0.38043-0.29199,0.76074-0.42462,1.10913c-1.40082,3.68048-2.1908,7.67126-2.32281,11.42078 c0,2.16016,0.7207,4.96826,2.73633,6.19238c0.36035,0.21582,0.93408,0.45178,1.44043,0.50391 c0.2746,0.02832,0.50446-0.0213,0.50446-0.23761c0-0.21582-0.21637-0.33856-0.3609-0.41034 c-0.71973-0.43213-1.15137-1.94434-1.15137-3.24023c-0.50006-4.68695,2.19525-9.70203,4.52222-13.8136 c0.37299-0.659,0.71582-1.25793,1.04291-1.82965c0.35107,0.00348,0.70306,0.00751,1.0589,0.01776 c1.00781,0,2.59277,0.14404,2.80859,0.21631c0.07129,0,0.21582,0.07178,0.28809,0c0.07129,0,0.14355,0.07178,0.21582,0.07178 c1.72754,0.28809,4.32031,0.43213,4.6084,0c0.36035-0.43213-0.28809-0.72021-0.93652-1.43994 c-0.57617-0.64844-0.57751-1.5451-0.79333-1.76141c-0.36035-0.35986-0.64844-0.28809-1.44043-0.21582 c-0.68042,0-2.32538,0.07751-4.16962,0.19818c0.31848-0.58289,0.64209-1.18866,0.98572-1.85443 c1.76801-3.42554,3.99078-7.78424,3.57428-11.17633c2.56433,0.24548,6.28876,0.62238,6.30823,0.62427 c1.87207,0.21631,3.52832,0.50439,4.53613,0.14404c0.86426-0.35986,1.15234-1.15186,1.36816-2.16016 c0.14453-1.22412-0.14355-3.45605-1.44043-3.88818c-0.14355-0.07227-0.5752-0.07227-0.64746,0.07178 c0,0.07227,0.14355,0.14404,0.07227,0.64844c-0.07227,0.43164-0.57617,0.93604-1.29688,0.93604 c-6.62402,0.21582-12.96094-0.93604-18.9375,1.22412c-1.87207,0.64795-3.24023,1.2959-4.24805,2.16016 c-0.21582,0.14404-0.36035,0.43164-0.28809,0.57568c0.07227,0.28809,0.28809,0.28809,0.57617,0.28809 c1.90405-0.14264,3.11652-0.50562,4.82257-0.73523c0.99628-0.13403,2.03296-0.19208,3.1546-0.19995 c0.00201,0.04657,0.00751,0.08588,0.00787,0.13574c0.00879,1.19763-0.55347,2.72833-1.20905,4.38464 c-0.93317,2.35791-2.19885,4.96729-3.03186,7.21606c-0.30688,0.71515-0.63171,1.51483-0.95502,2.32495 c-1.47479,0.32489-2.44891,0.74158-2.935,1.10052c-1.00806,0.74426-1.43811,1.54279-1.22229,1.90265 C86.32808,101.30779,87.28786,101.01147,87.8069,100.86517z"
                  transform="translate(360.069329 -118.992148)"
                  stroke-width="0"
                  stroke-linejoin="miter"
                  stroke-miterlimit="2"
                  fill="#25ff81"
                  stroke="#25ff81"
                ></path>
                <linearGradient
                  id="3b43cc84-1baf-4b3a-a478-e55648db8e22"
                  gradientUnits="userSpaceOnUse"
                  x1="85.93556"
                  y1="98.37806"
                  x2="100.62694"
                  y2="105.83888"
                >
                  <stop
                    offset="0.11361"
                    style="stop-color: #000000; stop-opacity: 0"
                  ></stop>
                  <stop
                    offset="0.18824"
                    style="stop-color: #000000; stop-opacity: 0.37545"
                  ></stop>
                  <stop offset="0.31238" style="stop-color: #000000"></stop>
                  <stop offset="0.49204" style="stop-color: #000000"></stop>
                  <stop
                    offset="0.68345"
                    style="stop-color: #000000; stop-opacity: 0.37686"
                  ></stop>
                  <stop
                    offset="0.79921"
                    style="stop-color: #000000; stop-opacity: 0"
                  ></stop>
                </linearGradient>
                <path
                  class="highlight"
                  fill="url(#3b43cc84-1baf-4b3a-a478-e55648db8e22)"
                  d="M87.44347,99.16338c-1.00806,0.74426-1.43811,1.54279-1.22229,1.90265 c0.10687,0.24176,1.06671-0.05463,1.58569-0.20087c0.40881-0.11517,0.95428-0.2168,1.59344-0.30365 c0.3103-0.80762,0.64069-1.65302,0.97815-2.4986C88.90374,98.3878,87.92956,98.80443,87.44347,99.16338z"
                  transform="translate(360.069329 -118.992148)"
                  stroke-width="0"
                  stroke-linejoin="miter"
                  stroke-miterlimit="2"
                  opacity="0.5"
                ></path>
                <linearGradient
                  id="63a37e63-2922-4dd4-b90c-289aa16daf82"
                  gradientUnits="userSpaceOnUse"
                  x1="88.45505"
                  y1="93.41685"
                  x2="103.14642"
                  y2="100.87768"
                >
                  <stop
                    offset="0.11361"
                    style="stop-color: #000000; stop-opacity: 0"
                  ></stop>
                  <stop
                    offset="0.18824"
                    style="stop-color: #000000; stop-opacity: 0.37545"
                  ></stop>
                  <stop offset="0.31238" style="stop-color: #000000"></stop>
                  <stop offset="0.49204" style="stop-color: #000000"></stop>
                  <stop
                    offset="0.68345"
                    style="stop-color: #000000; stop-opacity: 0.37686"
                  ></stop>
                  <stop
                    offset="0.79921"
                    style="stop-color: #000000; stop-opacity: 0"
                  ></stop>
                </linearGradient>
                <path
                  class="highlight"
                  fill="url(#63a37e63-2922-4dd4-b90c-289aa16daf82)"
                  d="M103.43017,99.12218c-0.57617-0.64844-0.57751-1.5451-0.79333-1.76141 c-0.36035-0.35986-0.64844-0.28809-1.44043-0.21582c-0.68048,0-2.32538,0.07751-4.16968,0.19818 c-0.53961,0.98773-1.06451,1.90759-1.63983,2.91315c0.35107,0.00348,0.70306,0.00751,1.0589,0.01776 c1.00781,0,2.59277,0.14404,2.80859,0.21631c0.07129,0,0.21582,0.07178,0.28809,0c0.07129,0,0.14355,0.07178,0.21582,0.07178 c1.72754,0.28809,4.32031,0.43213,4.6084,0C104.72704,100.12999,104.07861,99.8419,103.43017,99.12218z"
                  transform="translate(360.069329 -118.992148)"
                  stroke-width="0"
                  stroke-linejoin="miter"
                  stroke-miterlimit="2"
                  opacity="0.5"
                ></path>
                <radialGradient
                  id="25ef072d-42a4-4f9f-925d-b107ea7a9680"
                  cx="98.52661"
                  cy="63.34875"
                  r="29.99604"
                  gradientUnits="userSpaceOnUse"
                  transform="translate(360.069329 -118.992148)"
                >
                  <stop
                    offset="0"
                    style="stop-color: #000000; stop-opacity: 0"
                  ></stop>
                  <stop
                    offset="0.66832"
                    style="stop-color: #000000; stop-opacity: 0"
                  ></stop>
                  <stop offset="0.89457" style="stop-color: #000000"></stop>
                </radialGradient>
                <path
                  class="highlight"
                  fill="url(#25ef072d-42a4-4f9f-925d-b107ea7a9680)"
                  d="M111.7113,79.10411c0,0.07227,0.14355,0.14404,0.07227,0.64844 c-0.07227,0.43164-0.57617,0.93604-1.29688,0.93604c-2.51318,0.08191-4.98462-0.03271-7.41113-0.08899 c-4.21216,0.11462-7.76489,0.58948-10.60352,1.42206c-2.48828,0.72968-5.63482,2.1324-5.44849,2.64856 c0.07886,0.26093,0.28711,0.26642,0.56567,0.26642c1.9043-0.1427,3.1167-0.50562,4.82275-0.73523 c1.91675-0.25793,3.99365-0.23303,6.53296-0.10834l-0.00122-0.00281c4.36066,0.3073,10.9885,0.98248,12.77753-0.30856 C112.9959,82.86184,113.41654,79.59048,111.7113,79.10411z"
                  transform="translate(360.069329 -118.992148)"
                  stroke-width="0"
                  stroke-linejoin="miter"
                  stroke-miterlimit="2"
                  opacity="0.5"
                ></path>
                <linearGradient
                  id="3d7b8f58-ef2c-43ec-b902-ad80ca21d4d4"
                  gradientUnits="userSpaceOnUse"
                  x1="89.33424"
                  y1="144.89456"
                  x2="94.10976"
                  y2="99.34354"
                >
                  <stop offset="0.38046" style="stop-color: #000000"></stop>
                  <stop
                    offset="0.55513"
                    style="stop-color: #000000; stop-opacity: 0.68377"
                  ></stop>
                  <stop
                    offset="0.9328"
                    style="stop-color: #000000; stop-opacity: 0"
                  ></stop>
                </linearGradient>
                <path
                  class="highlight"
                  fill="url(#3d7b8f58-ef2c-43ec-b902-ad80ca21d4d4)"
                  d="M101.55389,84.02911c-0.21899-1.29092-2.42259-1.92502-3.59909-2.09309 c-1.15321-0.16474-2.576,0.18227-2.7542,0.58546c-0.09678,0.21898,0.36545,0.4754,0.37382,1.61573 c0.0088,1.19762-0.5535,2.7283-1.20902,4.38464c-0.93318,2.35789-2.19891,4.96725-3.03191,7.21607 c-0.77801,1.81315-1.67397,4.13606-2.35781,5.93271c-1.40086,3.68047-2.19083,7.67126-2.32285,11.42081 c0,2.16016,0.7207,4.96826,2.73633,6.19238c0.36035,0.21582,0.93411,0.45178,1.44043,0.50391 c0.27464,0.02827,0.50449-0.02132,0.50449-0.23763c0-0.21582-0.21641-0.33854-0.36094-0.41032 c-0.71973-0.43213-1.15137-1.94434-1.15137-3.24023c-0.50006-4.687,2.19525-9.70203,4.52226-13.81364 c1.41621-2.50231,2.41157-4.16183,3.66852-6.59719C99.82967,91.96802,102.13566,87.45846,101.55389,84.02911z"
                  transform="translate(360.069329 -118.992148)"
                  stroke-width="0"
                  stroke-linejoin="miter"
                  stroke-miterlimit="2"
                  opacity="0.5"
                ></path>
                <linearGradient
                  id="6059eed5-06e4-48bf-8b64-17bdc9c8a2b5"
                  gradientUnits="userSpaceOnUse"
                  x1="101.01194"
                  y1="74.71136"
                  x2="94.79862"
                  y2="96.8463"
                >
                  <stop offset="0.27142" style="stop-color: #000000"></stop>
                  <stop
                    offset="0.44202"
                    style="stop-color: #000000; stop-opacity: 0.69338"
                  ></stop>
                  <stop
                    offset="0.72618"
                    style="stop-color: #000000; stop-opacity: 0.18264"
                  ></stop>
                  <stop
                    offset="0.8278"
                    style="stop-color: #000000; stop-opacity: 0"
                  ></stop>
                </linearGradient>
                <path
                  class="highlight"
                  fill="url(#6059eed5-06e4-48bf-8b64-17bdc9c8a2b5)"
                  d="M97.21941,96.98802c0.25696-0.47528,0.51825-0.96674,0.79315-1.49933 c1.76801-3.42554,3.99078-7.78424,3.57422-11.17633c-1.13074-0.10822-2.03821-0.19116-2.29907-0.20471 c-1.36078-0.07056-2.58466-0.11414-3.72113-0.1062c0.00201,0.04657,0.00751,0.08588,0.00787,0.13574 c0.00879,1.19763-0.55353,2.72833-1.20905,4.38464c-0.93317,2.35791-2.19891,4.96722-3.03192,7.21606 c-0.16895,0.39374-0.34485,0.81891-0.52155,1.25012H97.21941z"
                  transform="translate(360.069329 -118.992148)"
                  stroke-width="0"
                  stroke-linejoin="miter"
                  stroke-miterlimit="2"
                  opacity="0.5"
                ></path>
              </g>
              <g
                id="path65393"
                aria-label="l"
                transform="translate(0 349.82200953) translate(365.16691932 -17.45924803999999) scale(2.86) translate(-465.09374 37.575714)"
              >
                <path
                  class="c1"
                  d="M96.64128,103.34962c2.65973-0.58221,8.76959-6.12512,11.84741-12.18829 c1.03528-2.03943,2.24707-4.3197,1.81543-6.3363c-0.28809-1.43994-1.69043-2.0744-2.8418-2.86639 c-1.94434-1.2959-4.75293-0.21582-6.48145,1.65625c-1.72754,1.80029-2.5918,3.16846-3.8877,5.61621 c-2.73633,5.32861-6.04883,14.90527-6.48047,16.41748c-0.67181,2.01324-1.10986,4.69299-0.98541,7.0979 c0.17151,3.31458,2.29803,6.65552,5.23346,6.65552c1.15192,0,3.25854-0.29907,5.78857-2.62854 c0.25952-0.22662,0.5152-0.4577,0.76678-0.69318c0.10327-0.09668,0.17914-0.19885,0.2699-0.30267 c0.11566-0.1322,0.27753-0.24207,0.41272-0.35394c0.19501-0.15668,0.41321-0.32703,0.57391-0.52173 c0.07721-0.0929,0.13727-0.20288,0.14587-0.32678c0.07361,0.00488,0.14587-0.00702,0.21332-0.03284 c0.17413-0.06891,0.24768-0.24945,0.33606-0.39752c0.10419-0.1756,0.25995-0.13947,0.38501-0.2876 c0.25153-0.29285,2.48389-1.99707,2.73151-3.54163c0.09912-0.61829-0.17358-1.65649-1.33929-1.93402 c-0.27167,0.72137-1.79065,2.54175-4.0119,4.58826c-2.11298,1.94666-4.5108,3.72925-5.9389,3.72925 c-1.60962,0-1.6568-2.4408-1.22461-4.6181C94.49876,109.4156,95.4138,106.48683,96.64128,103.34962z M104.36565,87.1432 c1.08551-2.00891,2.2691-3.2525,3.11212-3.06091c0.52625,0.11957,0.21002,2.08002-0.17566,3.15149 c-1.96033,5.44519-5.46088,9.72632-8.9118,11.96716C100.0493,95.47749,102.02403,91.47664,104.36565,87.1432z"
                  transform="translate(375.487569 -118.966725)"
                  stroke-width="0"
                  stroke-linejoin="miter"
                  stroke-miterlimit="2"
                  fill="#25ff81"
                  stroke="#25ff81"
                ></path>
                <radialGradient
                  id="6fb46647-854d-473c-841e-47170a45b427"
                  cx="100.26563"
                  cy="101.21946"
                  r="10.2224"
                  gradientTransform="matrix(-0.9878 0.15573 -0.07792 -0.49426 207.19536 135.63354)"
                  gradientUnits="userSpaceOnUse"
                  transform="translate(375.487569 -118.966725)"
                >
                  <stop offset="0.2098" style="stop-color: #000000"></stop>
                  <stop
                    offset="0.82889"
                    style="stop-color: #000000; stop-opacity: 0"
                  ></stop>
                </radialGradient>
                <path
                  class="highlight"
                  fill="url(#6fb46647-854d-473c-841e-47170a45b427)"
                  d="M95.64209,92.65493v-0.34241c-2.3432,5.31854-4.67224,12.08496-5.02936,13.33606 c-0.52185,1.56372-0.89868,3.52899-0.98438,5.45593h4.56458c0.54614-2.40222,1.36725-4.99176,2.44836-7.755 c-0.0896,0.01959-0.1861,0.04913-0.26758,0.05731c-0.61578,0.06158-1.36096-0.48798-1.53754-1.27173 c-0.30518-1.354,0.284-2.13293,0.48798-2.21698c0.2171,0.27911,1.44501,0.26758,2.42981-0.30035 c0.21149-0.12195,0.42413-0.27911,0.63641-0.41693c0.9303-2.08795,1.97186-4.2738,3.10968-6.5459H95.64209z"
                  transform="translate(375.487569 -118.966725)"
                  stroke-width="0"
                  stroke-linejoin="miter"
                  stroke-miterlimit="2"
                  opacity="0.5"
                ></path>
                <linearGradient
                  id="e916214d-d3e9-4c18-9ba9-849d926e7117"
                  gradientUnits="userSpaceOnUse"
                  x1="116.55927"
                  y1="93.01245"
                  x2="93.17151"
                  y2="116.03286"
                >
                  <stop offset="0.3816" style="stop-color: #000000"></stop>
                  <stop
                    offset="0.55244"
                    style="stop-color: #000000; stop-opacity: 0.68377"
                  ></stop>
                  <stop
                    offset="0.92184"
                    style="stop-color: #000000; stop-opacity: 0"
                  ></stop>
                </linearGradient>
                <path
                  class="highlight"
                  fill="url(#e916214d-d3e9-4c18-9ba9-849d926e7117)"
                  d="M89.62457,111.22945c-0.01935,0.51154-0.02295,1.02063,0.00275,1.51703 c0.17145,3.31458,2.29797,6.65552,5.23346,6.65552c1.15192,0,3.25854-0.29907,5.78857-2.62854 c0.25952-0.22662,0.5152-0.4577,0.76678-0.69318c0.10327-0.09668,0.17914-0.19885,0.2699-0.30267 c0.11566-0.1322,0.27753-0.24207,0.41272-0.35394c0.19501-0.15668,0.41321-0.32703,0.57391-0.52173 c0.07721-0.0929,0.13727-0.20288,0.14587-0.32678c0.07361,0.00488,0.14587-0.00702,0.21332-0.03284 c0.17413-0.06891,0.24768-0.24945,0.33606-0.39752c0.10419-0.1756,0.25995-0.13947,0.38501-0.2876 c0.25153-0.29285,2.48389-1.99713,2.73151-3.54169c0.09912-0.61829-0.17358-1.65649-1.33929-1.93402 c-0.27167,0.72137-1.79065,2.54181-4.0119,4.58832c-0.93243,0.85907-1.9173,1.67596-2.85291,2.33203l-0.00781,0.02698 C94.93347,118.11068,90.76611,117.47805,89.62457,111.22945z"
                  transform="translate(375.487569 -118.966725)"
                  stroke-width="0"
                  stroke-linejoin="miter"
                  stroke-miterlimit="2"
                  opacity="0.5"
                ></path>
                <radialGradient
                  id="309cd842-a974-4bac-9829-c45b6bf599b1"
                  cx="123.60277"
                  cy="92.2248"
                  r="41.94928"
                  gradientUnits="userSpaceOnUse"
                  transform="translate(375.487569 -118.966725)"
                >
                  <stop
                    offset="0"
                    style="stop-color: #000000; stop-opacity: 0"
                  ></stop>
                  <stop
                    offset="0.74334"
                    style="stop-color: #000000; stop-opacity: 0"
                  ></stop>
                  <stop offset="1" style="stop-color: #000000"></stop>
                </radialGradient>
                <path
                  class="highlight"
                  fill="url(#309cd842-a974-4bac-9829-c45b6bf599b1)"
                  d="M110.30414,84.82497c-0.28809-1.43994-1.69043-2.07434-2.8418-2.86633 c-1.94434-1.2959-4.75293-0.21582-6.48145,1.65625c-1.72754,1.80029-2.5918,3.16846-3.8877,5.61621 c-2.73633,5.32861-6.04883,14.90527-6.48047,16.41748c-0.53314,1.59766-0.91376,3.61414-0.98816,5.58087 c1.14154,6.2486,5.3089,6.88123,8.64795,4.09937l0.00781-0.02698c-1.18451,0.83063-2.28815,1.39722-3.086,1.39722 c-1.60962,0-1.6568-2.4408-1.22461-4.6181c0.65289-3.28943,1.86761-6.96271,3.57037-10.95941 c1.80945-4.24719,4.07965-8.89673,6.82556-13.97833c1.08551-2.00891,2.2691-3.25256,3.11212-3.06097 c0.3833,0.08716,0.31964,1.15076,0.10779,2.13617l2.76642,0.13074C110.41699,85.83022,110.41003,85.31966,110.30414,84.82497z"
                  transform="translate(375.487569 -118.966725)"
                  stroke-width="0"
                  stroke-linejoin="miter"
                  stroke-miterlimit="2"
                  opacity="0.5"
                ></path>
              </g>
              <g
                id="path65395"
                aria-label="a"
                transform="translate(0 349.82200953) translate(407.41106411999993 20.543262220000003) scale(2.86) translate(-479.86442 24.288123)"
              >
                <path
                  class="c1"
                  d="M97.95877,112.99379c-0.00409,1.09198,0.10248,2.16125,0.39014,3.0957 c0.57617,1.87207,1.60162,3.24023,4.04987,3.24023c1.59839,0,2.90771-0.83765,5.21735-2.61432 c0.27313-0.21008,0.5152-0.4577,0.76678-0.69318c0.10327-0.09668,0.17914-0.19885,0.2699-0.30267 c0.11566-0.1322,0.27753-0.24207,0.41272-0.35394c0.19501-0.15668,0.41321-0.32703,0.57391-0.52173 c0.07721-0.0929,0.13727-0.20288,0.14587-0.32678c0.07361,0.00488,0.14587-0.00702,0.21332-0.03284 c0.17413-0.06891,0.24768-0.24945,0.33606-0.39752c0.10419-0.1756,0.25995-0.13947,0.38501-0.2876 c0.25153-0.29285,2.48395-1.99713,2.73157-3.54169c0.09912-0.61829-0.17358-1.65649-1.33929-1.93402 c-0.27167,0.72137-1.79071,2.54181-4.01196,4.58832c-2.11298,1.94666-3.96985,3.58862-4.84552,3.57538 c-3.17212-0.04803,5.17548-14.65448,5.60712-15.44696c0.43164-0.86377,1.44043-2.37598,1.44043-3.31201 c0.07129-0.72021-0.79199-1.08008-1.5127-1.58447c-0.50391-0.35986-2.23242-1.65576-2.87988-1.43994 c-0.39636,0.13208-0.68073,0.41791-0.91278,0.77148c-0.047,0.07159-0.72882,1.14923-1.33765,2.21497 c-1.44672-1.26953-3.72113-2.26624-5.52594-2.26624c-1.22461,0-3.02441,0.79199-4.75293,2.52002 c-1.65625,1.65625-2.73633,3.3125-3.88867,5.32861c-1.43945,2.66406-3.5058,8.10645-2.8291,11.89606 c0.40143,2.24817,1.46729,3.8634,3.28845,4.09119c2.37018,0.29657,4.54889-2.32349,5.51959-3.41193 C96.28018,114.93996,97.14914,113.97487,97.95877,112.99379z M91.35184,116.21022 c-0.64832-0.01904-0.52582-1.29028-0.32416-2.80298c0.26697-2.00208,1.2724-4.44666,2.13666-6.10193 c2.01563-3.81689,2.95691-5.28253,5.04578-6.72296c0.85638-0.58398,1.81653-0.74597,2.56232-0.73663 c0.48334,0.00604,1.03253,0.14362,1.56244,0.36621c-0.77289,1.43829-1.48309,2.58435-2.55341,5.05743 C97.22037,109.79634,92.15506,116.149,91.35184,116.21022z"
                  transform="translate(393.334401 -118.967787)"
                  stroke-width="0"
                  stroke-linejoin="miter"
                  stroke-miterlimit="2"
                  fill="#25ff81"
                  stroke="#25ff81"
                ></path>
                <radialGradient
                  id="f9959707-057e-4eec-bae3-0e200a2b15a1"
                  cx="116.21508"
                  cy="98.02955"
                  r="29.40543"
                  gradientUnits="userSpaceOnUse"
                  transform="translate(393.334401 -118.967787)"
                >
                  <stop
                    offset="0"
                    style="stop-color: #000000; stop-opacity: 0"
                  ></stop>
                  <stop
                    offset="0.50619"
                    style="stop-color: #000000; stop-opacity: 0"
                  ></stop>
                  <stop offset="0.89473" style="stop-color: #000000"></stop>
                </radialGradient>
                <path
                  class="highlight"
                  fill="url(#f9959707-057e-4eec-bae3-0e200a2b15a1)"
                  d="M105.34463,115.32882l0.00018-0.00122c-0.89587,0.71027-1.63049,1.16644-2.09027,1.15948 c-3.17212-0.04803,5.17542-14.65442,5.60706-15.4469c0.43164-0.86377,1.44043-2.37598,1.44043-3.31201 c0.07129-0.72021-0.79199-1.08008-1.5127-1.58447c-0.50391-0.35986-2.23242-1.65576-2.87988-1.43994 c-0.3963,0.13202-0.68073,0.41785-0.91278,0.77148c-0.06598,0.10046-1.38574,2.18396-1.99359,3.43378 c-1.24878,2.56775-2.09576,3.47992-3.93292,8.07092c-0.43835,1.09552-0.81244,2.57819-0.99744,4.13086 C98.43771,117.37112,102.0259,118.24892,105.34463,115.32882z"
                  transform="translate(393.334401 -118.967787)"
                  stroke-width="0"
                  stroke-linejoin="miter"
                  stroke-miterlimit="2"
                  opacity="0.5"
                ></path>
                <linearGradient
                  id="18021405-0919-4f48-9c9f-b5da682e6d00"
                  gradientUnits="userSpaceOnUse"
                  x1="114.575"
                  y1="101.4597"
                  x2="104.26183"
                  y2="112.69644"
                >
                  <stop offset="0.25797" style="stop-color: #000000"></stop>
                  <stop
                    offset="0.47882"
                    style="stop-color: #000000; stop-opacity: 0.68377"
                  ></stop>
                  <stop
                    offset="0.95634"
                    style="stop-color: #000000; stop-opacity: 0"
                  ></stop>
                </linearGradient>
                <path
                  class="highlight"
                  fill="url(#18021405-0919-4f48-9c9f-b5da682e6d00)"
                  d="M112.11196,108.32345c-0.27167,0.72137-1.79065,2.54175-4.0119,4.58826 c-1.00354,0.92456-1.94495,1.7735-2.75525,2.41589l-0.00018,0.00122c-3.31873,2.9201-6.90692,2.0423-7.27191-4.21802 c-0.2038,1.71063-0.17688,3.50696,0.27618,4.9787c0.57617,1.87207,1.60168,3.24023,4.04993,3.24023 c1.59833,0,2.90765-0.83765,5.21735-2.61438c0.27307-0.21008,0.5152-0.4577,0.76678-0.69318 c0.10327-0.09668,0.17914-0.19885,0.2699-0.30267c0.11566-0.1322,0.27753-0.24207,0.41272-0.35394 c0.19501-0.15668,0.41321-0.32703,0.57391-0.52173c0.07721-0.0929,0.13727-0.20288,0.14587-0.32678 c0.07361,0.00488,0.14587-0.00702,0.21332-0.03284c0.17413-0.06891,0.24768-0.24945,0.33606-0.39752 c0.10419-0.1756,0.25995-0.13947,0.38501-0.2876c0.25153-0.29285,2.48389-1.99707,2.73151-3.54163 C113.55038,109.63918,113.27767,108.60098,112.11196,108.32345z"
                  transform="translate(393.334401 -118.967787)"
                  stroke-width="0"
                  stroke-linejoin="miter"
                  stroke-miterlimit="2"
                  opacity="0.5"
                ></path>
                <radialGradient
                  id="5c8ac0f2-05e1-40fe-a603-950a870ec444"
                  cx="103.25879"
                  cy="99.48936"
                  r="5.5485"
                  gradientTransform="matrix(0.6646 0.7472 -0.52164 0.46397 86.52992 -23.82578)"
                  gradientUnits="userSpaceOnUse"
                  transform="translate(393.334401 -118.967787)"
                >
                  <stop offset="0.19774" style="stop-color: #000000"></stop>
                  <stop
                    offset="1"
                    style="stop-color: #000000; stop-opacity: 0"
                  ></stop>
                </radialGradient>
                <path
                  class="highlight"
                  fill="url(#5c8ac0f2-05e1-40fe-a603-950a870ec444)"
                  d="M108.78933,96.1437c-0.50391-0.35986-2.23242-1.65576-2.87988-1.43994 c-0.3963,0.13202-0.68073,0.41785-0.91278,0.77148c-0.047,0.07153-0.72888,1.14923-1.33765,2.21497 c0.44299,0.38873,0.81543,0.80109,1.06403,1.2207c0.61346,1.03546,0.13605,2.5614-0.22186,3.14795 c-0.31934-0.7583-1.21082-1.44556-2.16644-1.84692c-0.59692,1.11169-1.15631,2.04846-1.87225,3.55347 c1.95795,0.60706,3.42047,2.40436,5.30707,3.07794c1.46808-2.93701,2.91864-5.48486,3.09204-5.80316 c0.43164-0.86377,1.44043-2.37598,1.44043-3.31201C110.37331,97.00796,109.51003,96.64809,108.78933,96.1437z"
                  transform="translate(393.334401 -118.967787)"
                  stroke-width="0"
                  stroke-linejoin="miter"
                  stroke-miterlimit="2"
                  opacity="0.5"
                ></path>
                <radialGradient
                  id="fd0c68c2-3574-415f-a12d-071236db4278"
                  cx="110.81117"
                  cy="91.27599"
                  r="38.00396"
                  gradientUnits="userSpaceOnUse"
                  transform="translate(393.334401 -118.967787)"
                >
                  <stop
                    offset="0"
                    style="stop-color: #000000; stop-opacity: 0"
                  ></stop>
                  <stop
                    offset="0.61564"
                    style="stop-color: #000000; stop-opacity: 0"
                  ></stop>
                  <stop offset="0.92689" style="stop-color: #000000"></stop>
                </radialGradient>
                <path
                  class="highlight"
                  fill="url(#fd0c68c2-3574-415f-a12d-071236db4278)"
                  d="M104.72305,98.91091c-1.06061-1.79016-4.23254-3.48694-6.58997-3.48694 c-1.22461,0-3.02441,0.79199-4.75293,2.52002c-1.65625,1.65625-2.73633,3.3125-3.88867,5.32861 c-0.9375,1.73505-2.13635,4.64807-2.67468,7.51593c-0.27832,7.03442,2.94727,7.35919,5.37274,4.79596l0.00073-0.00183 c-0.39545,0.38818-0.69037,0.61627-0.83844,0.62756c-0.64832-0.0191-0.52582-1.29034-0.32416-2.80298 c0.26697-2.00208,1.2724-4.44666,2.13666-6.10193c2.01563-3.81689,2.95691-5.28259,5.04578-6.72302 c0.85638-0.58392,1.81653-0.74597,2.56232-0.73663c1.35492,0.01703,3.23236,1.03442,3.72876,2.2132 C104.85909,101.47231,105.33651,99.94637,104.72305,98.91091z"
                  transform="translate(393.334401 -118.967787)"
                  stroke-width="0"
                  stroke-linejoin="miter"
                  stroke-miterlimit="2"
                  opacity="0.5"
                ></path>
                <linearGradient
                  id="c9cce131-fedc-4741-8e72-b94012ae20c7"
                  gradientUnits="userSpaceOnUse"
                  x1="104.66223"
                  y1="110.77654"
                  x2="88.99965"
                  y2="113.23929"
                >
                  <stop offset="0.21023" style="stop-color: #000000"></stop>
                  <stop
                    offset="0.43527"
                    style="stop-color: #000000; stop-opacity: 0.68377"
                  ></stop>
                  <stop
                    offset="0.92184"
                    style="stop-color: #000000; stop-opacity: 0"
                  ></stop>
                </linearGradient>
                <path
                  class="highlight"
                  fill="url(#c9cce131-fedc-4741-8e72-b94012ae20c7)"
                  d="M86.8168,110.78854c-0.28827,1.53564-0.39038,3.05853-0.15442,4.38007 c0.40149,2.24823,1.46729,3.8634,3.28845,4.09125c2.37018,0.29651,4.54889-2.32355,5.51965-3.41193 c0.80975-0.90796,1.67865-1.87305,2.48828-2.85413c0.00824-2.18896,0.4967-4.47766,1.11139-6.01385 c0.26135-0.65314,0.49677-1.21021,0.72186-1.72894c-2.08679,3.6944-5.84937,8.61176-7.60175,10.33167l-0.00073,0.00183 C89.76406,118.14773,86.53848,117.82296,86.8168,110.78854z"
                  transform="translate(393.334401 -118.967787)"
                  stroke-width="0"
                  stroke-linejoin="miter"
                  stroke-miterlimit="2"
                  opacity="0.5"
                ></path>
              </g>
              <g
                id="path65397"
                aria-label="s"
                transform="translate(0 349.82200953) translate(468.93758631999987 14.377639900000005) scale(2.86) translate(-501.37719 26.443935)"
              >
                <path
                  class="c1"
                  d="M99.85565,103.7715c-0.06195-0.08844-0.12061-0.1745-0.18457-0.26422 c-0.59406-0.83331-1.10321-1.5307-1.52704-2.16211c0.95795-0.47986,2.24933-1.47485,2.66687-1.92969 c1.18817-1.29425,1.45123-2.61755,1.59033-3.56372c0.18652-1.26831-1.67365-2.70966-2.03302-2.8537 c-1.08008-0.57617-2.81696-0.59851-3.53668-0.16638c-1.7251,1.17633-2.64032,3.08405-2.62836,4.83752 c0.01233,1.80957,0.664,3.24646,1.52063,4.89264c0.4635,0.89069,1.12067,1.91339,1.30341,2.36658 c0.02722,0.0675,0.0481,0.1239,0.07428,0.18958c-0.24591,0.13184-0.49377,0.26807-0.7431,0.40674 c-0.0459,0.0257-0.10223,0.0545-0.14667,0.07977c0.00012,0.00018,0.00031,0.00067,0.00043,0.00085 c-1.83154,1.02423-3.66541,2.1535-4.56616,2.57733c-0.36035,0.14453-0.43164,0.50391-0.64844,0.50391 c-0.21582,0-0.43164,0.14453-0.5752,0.28809c-0.36035,0.36035-0.93976,0.67932-2.43488,2.14508 c-1.75195,1.71765-2.24481,3.31348-2.24481,4.75391c0,2.0166,2.0166,3.81641,6.12012,3.81641 c3.52832,0,6.55273-0.71973,8.85742-2.66406c0.14355-0.07227,0.21582-0.28809,0.35938-0.43262 c0.07227-0.07129,0.2168,0,0.28809-0.07129c0.07227-0.07227,0.07227-0.2168,0.14453-0.36035 c0.07227-0.07227,0.21582-0.14453,0.28809-0.21582c0.07129-0.14453,0.07129-0.2168,0.14355-0.36035 c0.07227-0.07227,0.21582-0.14355,0.28809-0.21582c0.21582-0.28809,1.22461-1.87207,1.08008-3.88867 c-0.1109-1.72491-0.60895-3.10522-1.5274-4.70679c-0.00989-0.01727-0.24524-0.42633-0.63416-1.04822 c3.36224-1.85638,7.35657-4.12238,7.70648-4.25378c0.07129-0.07178,0.35938-0.07178,0.43164-0.14404 c0-0.14404,0.07227-0.14404,0.21582-0.14404c0.2168-0.07178,0.43262-0.21582,0.64844-0.28809h0.50391 c0.07227-0.07178,0.14453-0.14404,0.21582-0.21582c0.36035-0.21582,2.23242-0.86426,2.44824-0.93604 c0.28809,0,0.28809,0.07178,0.43262-0.21631c0.07129-0.21582,0.14355-0.21582,0.35938-0.2876c0,0,0.14453-0.21631,0.14453-0.28809 c-0.07227-0.57617-1.86011-0.05621-2.60388,0.16565c-3.0116,0.89813-4.58197,1.62268-5.87787,2.12659 C103.97778,101.93916,101.80774,102.8647,99.85565,103.7715z M97.08167,97.46407c0.35107-1.15259,1.20667-2.52161,2.34167-2.61627 c0.43262-0.07178,0.43262,0.43213,0.36035,0.72021c-0.15637,0.46948-0.57324,1.24597-1.41199,2.09259 c-0.31128,0.31421-0.85876,0.63806-1.41467,0.87775C96.94055,98.1899,96.96777,97.83797,97.08167,97.46407z M98.19971,110.1852 c-0.21582,1.51172-0.9848,2.90814-2.16016,4.24805c-1.50793,1.71912-2.6792,2.17468-4.76709,2.31824 c-1.80078,0.14453-2.56354-0.42731-2.5979-0.94263c-0.14172-2.12537,3.45197-4.58722,4.38104-5.33148 c1.35498-1.08539,2.68835-1.8689,3.88416-2.50806c0.24835-0.11652,0.59033-0.28973,0.99347-0.50037 C98.23822,108.54823,98.30518,109.33876,98.19971,110.1852z"
                  transform="translate(415.63452 -118.977371)"
                  stroke-width="0"
                  stroke-linejoin="miter"
                  stroke-miterlimit="2"
                  fill="#25ff81"
                  stroke="#25ff81"
                ></path>
                <linearGradient
                  id="1a3bfacf-2639-4288-95f6-a70e52c9c031"
                  gradientUnits="userSpaceOnUse"
                  x1="91.08774"
                  y1="102.67667"
                  x2="103.15181"
                  y2="94.6003"
                >
                  <stop offset="0.3682" style="stop-color: #000000"></stop>
                  <stop
                    offset="0.50289"
                    style="stop-color: #000000; stop-opacity: 0.68377"
                  ></stop>
                  <stop
                    offset="0.79414"
                    style="stop-color: #000000; stop-opacity: 0"
                  ></stop>
                </linearGradient>
                <path
                  class="highlight"
                  fill="url(#1a3bfacf-2639-4288-95f6-a70e52c9c031)"
                  d="M96.95703,98.53835c0.04187,0.88293,0.47345,1.74377,1.18701,2.80676 c0.95789-0.47986,2.24933-1.47485,2.66687-1.92969c1.18817-1.29425,1.45123-2.61755,1.59033-3.56366 c0.18652-1.26831-1.67365-2.70966-2.03302-2.8537c-0.21503,0.63269-0.51227,2.28186-0.58453,2.56995 c-0.15637,0.46942-0.57324,1.24591-1.41199,2.09259C98.06042,97.97482,97.51294,98.29867,96.95703,98.53835z"
                  transform="translate(415.63452 -118.977371)"
                  stroke-width="0"
                  stroke-linejoin="miter"
                  stroke-miterlimit="2"
                  opacity="0.5"
                ></path>
                <radialGradient
                  id="f8641357-c545-4fc6-9cf5-e9ae4813493f"
                  cx="104.52267"
                  cy="115.82958"
                  r="26.93802"
                  gradientUnits="userSpaceOnUse"
                  transform="translate(415.63452 -118.977371)"
                >
                  <stop
                    offset="0"
                    style="stop-color: #000000; stop-opacity: 0"
                  ></stop>
                  <stop
                    offset="0.63258"
                    style="stop-color: #000000; stop-opacity: 0"
                  ></stop>
                  <stop offset="0.93384" style="stop-color: #000000"></stop>
                </radialGradient>
                <path
                  class="highlight"
                  fill="url(#f8641357-c545-4fc6-9cf5-e9ae4813493f)"
                  d="M96.54041,104.01418c0.24957-0.14056,0.49725-0.28265,0.74414-0.41437 c0.59546-0.31775,1.20331-0.6026,1.79913-0.91101c-1.62109-2.25366-2.5163-3.53668-2.00201-5.22473 c0.33453-1.09827,1.12714-2.39307,2.18311-2.59454c0.16711-0.03192,0.28937-0.03973,0.37079-0.00122 c-1.10248-1.36346-4.70392-0.71753-5.42493,2.67395c-0.00079,0.04211-0.00775,0.08496-0.00745,0.12689 c0.01233,1.80963,0.664,3.24652,1.52063,4.89264C95.97644,103.04726,96.28088,103.56393,96.54041,104.01418z"
                  transform="translate(415.63452 -118.977371)"
                  stroke-width="0"
                  stroke-linejoin="miter"
                  stroke-miterlimit="2"
                  opacity="0.5"
                ></path>
                <radialGradient
                  id="73ec8b53-124b-4543-a4fd-2132c2e99dd2"
                  cx="110.97673"
                  cy="100.52072"
                  r="32.9356"
                  gradientUnits="userSpaceOnUse"
                  transform="translate(415.63452 -118.977371)"
                >
                  <stop
                    offset="0"
                    style="stop-color: #000000; stop-opacity: 0"
                  ></stop>
                  <stop
                    offset="0.63311"
                    style="stop-color: #000000; stop-opacity: 0"
                  ></stop>
                  <stop offset="0.94238" style="stop-color: #000000"></stop>
                </radialGradient>
                <path
                  class="highlight"
                  fill="url(#73ec8b53-124b-4543-a4fd-2132c2e99dd2)"
                  d="M93.85803,116.18984l0.00018-0.00067c-0.73834,0.3418-1.54877,0.49103-2.58575,0.56232 c-1.80078,0.14453-2.56354-0.42737-2.5979-0.94263c-0.14172-2.12543,3.45197-4.58722,4.38104-5.33148 c1.74371-1.39679,3.44983-2.29437,4.87329-3.02509c-0.18353-0.64594-0.45612-1.4035-0.82739-2.33429 c-2.10004,1.12579-4.40802,2.57184-5.45551,3.0647c-0.36035,0.14453-0.43164,0.50391-0.64844,0.50391 c-0.21582,0-0.43164,0.14453-0.5752,0.28809c-0.36035,0.36035-0.93976,0.67926-2.43488,2.14508 c-1.14929,1.12677-1.75024,2.19989-2.03217,3.2124C85.52124,117.70657,90.21887,118.45303,93.85803,116.18984z"
                  transform="translate(415.63452 -118.977371)"
                  stroke-width="0"
                  stroke-linejoin="miter"
                  stroke-miterlimit="2"
                  opacity="0.5"
                ></path>
                <linearGradient
                  id="327bceea-7677-4095-8f43-1379169ac3f5"
                  gradientUnits="userSpaceOnUse"
                  x1="95.48473"
                  y1="98.89608"
                  x2="103.07657"
                  y2="111.81445"
                >
                  <stop
                    offset="0.06869"
                    style="stop-color: #000000; stop-opacity: 0"
                  ></stop>
                  <stop
                    offset="0.19295"
                    style="stop-color: #000000; stop-opacity: 0.2915"
                  ></stop>
                  <stop
                    offset="0.38842"
                    style="stop-color: #000000; stop-opacity: 0.75005"
                  ></stop>
                  <stop offset="0.49497" style="stop-color: #000000"></stop>
                  <stop
                    offset="0.5762"
                    style="stop-color: #000000; stop-opacity: 0.83916"
                  ></stop>
                  <stop
                    offset="0.69957"
                    style="stop-color: #000000; stop-opacity: 0.59488"
                  ></stop>
                  <stop
                    offset="0.83424"
                    style="stop-color: #000000; stop-opacity: 0.32822"
                  ></stop>
                  <stop
                    offset="1"
                    style="stop-color: #000000; stop-opacity: 0"
                  ></stop>
                </linearGradient>
                <path
                  class="highlight"
                  fill="url(#327bceea-7677-4095-8f43-1379169ac3f5)"
                  d="M99.67108,103.50729c-1.79333-2.51569-2.89075-3.88342-2.67334-5.50812 c-0.87494-0.39044-1.81799-0.67139-2.74518-0.9455c-0.0293,0.20605-0.05078,0.41162-0.04938,0.61548 c0.01233,1.80963,0.664,3.24652,1.52063,4.89264c0.4635,0.89075,1.12067,1.91339,1.30341,2.36664 c0.02753,0.06818,0.04865,0.12524,0.07507,0.19159c0.8028-0.42194,1.74994-0.88239,2.75336-1.34851 C99.7937,103.68307,99.73505,103.59701,99.67108,103.50729z"
                  transform="translate(415.63452 -118.977371)"
                  stroke-width="0"
                  stroke-linejoin="miter"
                  stroke-miterlimit="2"
                  opacity="0.5"
                ></path>
                <linearGradient
                  id="77bc9728-158e-4ee5-a66c-5ea4684877aa"
                  gradientUnits="userSpaceOnUse"
                  x1="93.38765"
                  y1="100.12849"
                  x2="100.86153"
                  y2="112.84615"
                >
                  <stop
                    offset="0.06869"
                    style="stop-color: #000000; stop-opacity: 0"
                  ></stop>
                  <stop
                    offset="0.21466"
                    style="stop-color: #000000; stop-opacity: 0.32045"
                  ></stop>
                  <stop
                    offset="0.33844"
                    style="stop-color: #000000; stop-opacity: 0.59221"
                  ></stop>
                  <stop
                    offset="0.45373"
                    style="stop-color: #000000; stop-opacity: 0.84531"
                  ></stop>
                  <stop offset="0.52419" style="stop-color: #000000"></stop>
                  <stop
                    offset="0.6685"
                    style="stop-color: #000000; stop-opacity: 0.67358"
                  ></stop>
                  <stop
                    offset="0.84332"
                    style="stop-color: #000000; stop-opacity: 0.27812"
                  ></stop>
                  <stop
                    offset="0.96628"
                    style="stop-color: #000000; stop-opacity: 0"
                  ></stop>
                </linearGradient>
                <path
                  class="highlight"
                  fill="url(#77bc9728-158e-4ee5-a66c-5ea4684877aa)"
                  d="M98.19971,110.1852c-0.16718,1.17096-0.6734,2.27167-1.4361,3.33154 c0.47388,0.57825,0.85944,1.22803,1.3772,1.77795c0.67517,0.71716,1.4397,1.37354,2.16797,2.03967 c0.13672-0.10345,0.27942-0.19696,0.41144-0.30835c0.14355-0.07227,0.21582-0.28809,0.35938-0.43262 c0.07227-0.07129,0.2168,0,0.28809-0.07129c0.07227-0.07227,0.07227-0.2168,0.14453-0.36035 c0.07227-0.07227,0.21582-0.14453,0.28809-0.21582c0.07129-0.14453,0.07129-0.2168,0.14355-0.36035 c0.07227-0.07227,0.21582-0.14355,0.28809-0.21582c0.21582-0.28809,1.22461-1.87207,1.08008-3.88867 c-0.1109-1.72491-0.60895-3.10529-1.5274-4.70685c-0.00989-0.01727-0.24524-0.42633-0.63416-1.04822 c-1.22839,0.67822-2.36774,1.29913-3.21722,1.74292C98.23822,108.5483,98.30518,109.33871,98.19971,110.1852z"
                  transform="translate(415.63452 -118.977371)"
                  stroke-width="0"
                  stroke-linejoin="miter"
                  stroke-miterlimit="2"
                  opacity="0.5"
                ></path>
              </g>
              <g
                id="path65399"
                aria-label="K"
                transform="translate(0 349.82200953) translate(535.4979945200001 -21.030086739999987) scale(2.86) translate(-524.65006 38.824259)"
              >
                <path
                  class="c1"
                  d="M92.65352,81.04845c1.00879,0.50391,1.00879,1.87207,0.7207,2.88037 c-2.88086,8.4248-7.63281,18.72168-7.63281,27.3623c0,2.3042,0.43164,4.46436,1.65625,6.12061 c0.93555,1.15186,2.01563,1.65576,3.0957,1.7998c0.36035,0.07227,0.79199,0.07227,1.00879,0.07227 c0.07129,0,0.50391-0.07227,0.50391-0.28809c0-0.07178-0.14453-0.14404-0.43262-0.35986 c-1.15137-0.86426-1.43945-2.23242-1.58398-3.52832v-0.43213c0-0.07227,0-0.14404,0-0.14404 c0-0.07227,0.07227-0.14404,0.07227-0.21582c0-0.07227-0.07227-0.28809-0.07227-0.36035 c0.14453-2.37598,0.86426-5.25635,1.08008-6.04834c0.38501-1.63593,0.87128-3.30829,1.41107-4.96179 c1.73999,3.69,5.27039,9.78571,9.53424,13.85168c0.07227,0.07617,0.07227-0.15289,0.21582-0.07672 c0.14453,0.07672,0.14453,0.38245,0.28809,0.53534c0.07227,0,0.43164,0.45862,1.00781,0.84058 c0.7207,0.45862,1.58398,0.84058,1.65625,0.7644c0-0.15289-0.43164-0.45868-0.28809-0.45868 c0.14453,0,0.21582-0.07666,0.36035-0.07666c0.14355,0,0.21582,0.15289,0.36035,0.22955c0.07129,0,0.14355,0.15289,0.21582,0.30579 c0.07227,0.22906-0.14453,0-0.21582,0c-0.14453,0-0.2168-0.07672-0.36035,0.07617c0.14355,0.07617,0.28809,0.22906,0.43164,0.22906 c0.14453-0.07617,0.2168,0,0.36035,0.15283c0.21582,0.15289,0.50391,0.22961,0.71973,0.30579 c0.07227-0.15289-0.14355-0.30579-0.07129-0.38196c0.07129-0.07666,0.21582,0,0.28809,0c0.07129,0,0.14355,0.07617,0.21582,0.07617 c0.07129,0,0.14355-0.07617,0.14355-0.07617c0.07227,0,0.07227,0,0.14453,0c0.14355,0.07617,0.28809,0,0.43164,0 c0.07227,0,0.14453,0,0.21582,0.07617c0.07227,0,0.14453,0,0.14453,0c0.07227,0,0.07227-0.07617,0.07227-0.15283 c0.07129,0,0.28711-0.07617,0.35938,0c0.07227,0.07666-0.07227,0.15283-0.07227,0.15283 c0.07227,0.22961,0.14453,0.07672,0.28809,0.07672c0.2168-0.15289,0.57617,0,0.79199,0c0.07227-0.15289,0.2168,0,0.36035,0 c0.07227-0.07672,0.14453-0.07672,0.21582-0.15289c0.43262-0.45862,1.00879-0.30573,1.5127-0.53479 c-0.21582,0.15289-0.43262,0.22906-0.64844,0.38196c-0.14355,0.07617-0.28809,0.229-0.43164,0.229 c-0.28809,0.07672-0.50391,0.07672-0.7207,0.15289c-0.21582,0.07672-0.43164,0.15289-0.5752,0.22955 c-0.14453,0-0.28809-0.15283-0.36035-0.15283c-0.14453,0.07617-0.28809,0.07617-0.36035,0.07617 c-0.14355,0.07666-0.28809,0.07666-0.35938,0.07666c-0.14453,0.07623-0.28809,0-0.36035-0.07666 c-0.14453,0-0.21582,0.07666-0.28809,0c-0.07227-0.07617-0.14453-0.15289-0.21582-0.15289 c-0.14453-0.07617-0.36035-0.07617-0.50391,0.07672c0.35938,0.3819,0.86328,0.3819,1.2959,0.3819 c0.07227,0.07672,0.07227-0.07617,0.14355-0.07617c0.07227,0.07617,0.21582,0.15289,0.28809,0.07617 c0.14453-0.15283,0.64844,0.22906,2.08789-0.30573c1.08008-0.38196,1.87305-1.22253,2.37695-1.91022 c0.50391-0.76434,0.86426-1.83453,1.00781-2.75128c0.14355-0.99341,0.07227-1.60492-0.14355-2.4455 c-0.14453-0.53534-0.7207-1.68164-0.93652-1.45209c-0.07227,0.07617,0.28809,0.84058,0.28809,1.22253 c0.07227,0.15283,0.07227,0.76434-0.07227,0.76434c-0.07227,0-0.07227-0.3819-0.14355-0.3819 c-0.07227-0.07672-0.07227,0.53479-0.14453,0.68768s-0.07227,0.38196-0.21582,0.45862c0-0.07666,0-0.22955-0.07227-0.30573 c-0.07129-0.07672-0.51489,2.3562-2.09277,2.19775c-0.14337-0.00745-0.63165-0.33905-0.71478-0.11401 c0,0-0.00397,0.0766-0.07611,0.07288c-0.00397,0.07605-0.36383,0.05731-0.43506,0.05365 c-0.21252-0.08734-0.50415-0.02625-0.7879-0.11731c-0.0119,0.22876,0.336,0.47675,0.48035,0.48425 c0.14337,0.00745,0.20361,0.23999,0.27582,0.24371c0.07117,0.00372,0.14728-0.0686,0.13934,0.08405 c-0.00397,0.07611-0.3559-0.09534-0.3559-0.09534c-0.07117-0.00366-0.1394-0.0835-0.20758-0.16388 c-0.1394-0.0835-0.3559-0.09479-0.41516-0.32776c0.00397-0.07611,0.0119-0.22876,0.0119-0.22876 c-0.3479-0.24799-0.56744-0.18262-0.84717-0.35028c-0.06818-0.08032-0.20758-0.16388-0.34796-0.24744 c-0.07214-0.00378-0.13544-0.16016-0.20361-0.24048c-0.07214-0.00378-0.21948,0.06537-0.35986-0.01874 c-0.1394-0.08356-0.19965-0.31659-0.41119-0.40387c-0.21552-0.01123-0.35193-0.17139-0.56744-0.18262 c-0.08014,0.14893,0.06421,0.15643,0.13641,0.16016c0.20758,0.16388,0.48334,0.40765,0.61877,0.56775 c0.06818,0.08038,0.20758,0.16388,0.20361,0.23999c0.06421,0.15643,0.14032,0.08411,0.20856,0.16394 c0.13141,0.23669,0.28271,0.09149,0.34698,0.24792c0.06421,0.15643,0.14429,0.00751,0.21155,0.08728 c0.07214,0.00378,0.13635,0.16022,0.13239,0.23682c-0.14832,0.06854-0.43597,0.05359-0.49921-0.10278 c-0.06824-0.07983,0.00793-0.15271-0.06427-0.15643c-0.1394-0.08356-0.28766-0.01501-0.35187-0.17139 c-0.06726-0.07983-0.13544-0.16016-0.14337-0.00751c-0.06421-0.15643-0.13245-0.23627-0.20361-0.23993 c-0.14435-0.00751-0.12848-0.31287-0.27185-0.32031c0,0-0.22345,0.14142-0.21552-0.01123 c0.00793-0.15271-0.14038-0.08362-0.21252-0.08734c-0.07123-0.00372-0.34698-0.24799-0.33508-0.47668 c0.0199-0.38196,0.13544,0.1601,0.13544,0.1601c0.07617-0.07281-0.06024-0.23303,0.01587-0.3053 c0.008-0.15271,0.0722,0.00372,0.14435,0.00751c0.00403-0.0766,0.00793-0.15271-0.06024-0.23303 c0.00397-0.07611-0.06421-0.15594-0.13239-0.23627c-0.06726-0.07977-0.14337-0.00745-0.20758-0.16388 c-0.0722-0.00378-0.14337-0.00751-0.1394-0.08356c-0.06818-0.08032-0.12848-0.31287-0.19568-0.39313 c-0.06818-0.07983-0.81146-1.03705-0.95178-1.12067c-0.13544-0.1601-0.20361-0.24048-0.34698-0.24792 c0.19965,0.31659,0.39929,0.63312,0.60284,0.8736c0.13245,0.23627,0.40826,0.47998,0.46356,0.78906 c0.06421,0.15643,0.27972,0.1676,0.33997,0.40063c0.04834,0.46124-0.14734,0.0686-0.29962,0.21381 c-0.05231-0.38519-0.336-0.47675-0.31219-0.93475c-0.1394-0.08356-0.27576-0.24377-0.41119-0.40387 c-0.06421-0.15643-0.19568-0.39264-0.26385-0.47302c-0.34003-0.40015-0.24792-0.77832-0.31616-0.85815 c-1.07434-1.50995-1.68213-2.30701-2.00629-3.01251c-0.0672-0.07977-0.07117-0.00366-0.13141-0.23621 c0.00397-0.0766,0.00397-0.0766-0.06427-0.15643c0.00403-0.0766-0.06818-0.08032-0.13934-0.08405 c0.00397-0.07605-0.06421-0.15643-0.06024-0.23248c-0.0722-0.00378-1.11969-2.04785-1.11572-2.12445 c-0.0672-0.07977-0.0672-0.07977-0.0672-0.07977c0.00397-0.0766-0.06818-0.08038-0.06818-0.08038 c-0.06824-0.07983-0.06427-0.15643-0.0603-0.23248c-0.89099-1.76862-1.61133-4.17236-2.50415-5.73035 c2.29541-0.97577,4.42645-2.17871,4.86389-2.51355c0.2135-0.06873,0.3548-0.20654,0.49615-0.34442 c0.07117,0,0.2135,0.06873,0.2135,0c0.07019-0.06915,0.14136-0.06915,0.21252-0.13782 c3.49707-2.35114,5.763-4.62195,7.89001-6.75818c0.63849-0.68921,2.05585-2.4115,2.55298-3.65204 c0.14136-0.34436,0.21252-0.96442,0-1.72229c-0.14233-0.48267-0.77985-1.51617-1.34717-2.2049 c-0.28363-0.41351-2.05682-2.20496-2.48181-1.72278c-0.14136,0.13788-0.14136,0.41351-0.14136,0.55139 c0.07019,0.55084,0.07019,0.96436,0,1.37787c0,0.06873-0.14233,0-0.07117,0.13788c0,0.20648,0,0.48218-0.07117,0.55133 c0,0.13782-0.21252,0.62006-0.28363,0.75787c-0.07117,0.06866-0.14136,0.20654-0.14136,0.2757 c-0.07117,0.06866-0.14233,0-0.14233,0.13782c0,0.20654-0.07117,0.13782-0.14136,0.20654 c-2.07025,3.75189-4.89252,6.47699-7.58685,8.68188c-1.23022,0.99066-2.33826,1.72711-3.36749,2.31873 c-0.35938,0.2066-1.5733,0.83215-2.91187,1.44128c1.72101-4.26324,3.41571-7.77576,4.0683-9.23395 c0.14355-0.21631,1.08008-2.08838,0.93555-3.38428c-0.14355-1.29639-1.15234-2.08838-1.7998-2.44824 c-1.2959-0.72021-2.59277-1.15234-3.16895-1.22412c-0.79199-0.14404-1.65527-0.28809-2.23145,0.28809 c-0.07227,0.07178-0.07227,0.14404-0.07227,0.21582C92.50996,80.97668,92.58223,80.97668,92.65352,81.04845z M112.67207,117.71398 c0,0.07617,0,0.1524-0.07227,0.1524C112.45528,117.71398,112.67207,117.71398,112.67207,117.71398z M112.38399,117.86639 c0.07129,0.15283-0.50488,0.76434-0.50488,0.76434C111.8791,118.55456,112.38399,117.94305,112.38399,117.86639z"
                  transform="translate(438.90867 -118.995297)"
                  stroke-width="0"
                  stroke-linejoin="miter"
                  stroke-miterlimit="2"
                  fill="#25ff81"
                  stroke="#25ff81"
                ></path>
                <radialGradient
                  id="80115c43-0a90-4ae4-ad11-e4a7c201a725"
                  cx="93.17425"
                  cy="99.46571"
                  r="7.1276"
                  gradientTransform="matrix(0.98449 -0.17545 0.13415 0.75274 -11.89822 40.94121)"
                  gradientUnits="userSpaceOnUse"
                  transform="translate(438.90867 -118.995297)"
                >
                  <stop offset="0.18494" style="stop-color: #000000"></stop>
                  <stop
                    offset="0.82889"
                    style="stop-color: #000000; stop-opacity: 0"
                  ></stop>
                </radialGradient>
                <path
                  class="highlight"
                  fill="url(#80115c43-0a90-4ae4-ad11-e4a7c201a725)"
                  d="M91.57343,118.63585c-1.15137-0.86426-1.43945-2.23242-1.58398-3.52832v-0.43213 c0-0.07227,0-0.14404,0-0.14404c0-0.07227,0.07227-0.14404,0.07227-0.21582c0-0.07227-0.07227-0.28809-0.07227-0.36035 c0.14453-2.37598,0.86426-5.25635,1.08008-6.04834c0.38525-1.63696,0.87195-3.31049,1.41217-4.96503 c-0.36487-0.77423-0.659-1.453-0.85541-1.97272c-0.24689-0.0025-0.48541-0.02155-0.70807-0.07056 c-1.38068-0.30402-1.73944-1.8374-1.66046-2.54285c0.00873-0.07806,0.04584-0.20966,0.14435-0.25287 c0.09717-0.0426,0.25537,0.00262,0.32739,0.00793c0.96747,0.07117,2.91962-0.50366,3.96838-0.9447 c0.36072-0.15167,0.72437-0.31317,1.08087-0.4754c1.72089-4.263,3.41553-7.77533,4.06812-9.23352 c0.14355-0.21631,1.08008-2.08838,0.93555-3.38428c-0.14355-1.29639-1.15234-2.08838-1.7998-2.44824 c-1.2959-0.72021-2.59277-1.15234-3.16895-1.22412c-0.79199-0.14404-1.65527-0.28809-2.23145,0.28809 c-0.07227,0.07178-0.07227,0.14404-0.07227,0.21582c0,0.07227,0.07227,0.07227,0.14355,0.14404 c1.00879,0.50391,1.00879,1.87207,0.7207,2.88037c-2.88086,8.4248-7.63281,18.72168-7.63281,27.3623 c0,2.3042,0.43164,4.46436,1.65625,6.12061c0.93555,1.15186,2.01563,1.65576,3.0957,1.7998 c0.36035,0.07227,0.79199,0.07227,1.00879,0.07227c0.07129,0,0.50391-0.07227,0.50391-0.28809 C92.00605,118.92393,91.86152,118.85167,91.57343,118.63585z"
                  transform="translate(438.90867 -118.995297)"
                  stroke-width="0"
                  stroke-linejoin="miter"
                  stroke-miterlimit="2"
                  opacity="0.5"
                ></path>
                <linearGradient
                  id="aa5d572f-599e-4deb-aae2-c7732a4e5098"
                  gradientUnits="userSpaceOnUse"
                  x1="96.48468"
                  y1="93.44673"
                  x2="105.49902"
                  y2="112.37126"
                >
                  <stop offset="0.14032" style="stop-color: #000000"></stop>
                  <stop
                    offset="0.30322"
                    style="stop-color: #000000; stop-opacity: 0.79156"
                  ></stop>
                  <stop
                    offset="0.92184"
                    style="stop-color: #000000; stop-opacity: 0"
                  ></stop>
                </linearGradient>
                <path
                  class="highlight"
                  fill="url(#aa5d572f-599e-4deb-aae2-c7732a4e5098)"
                  d="M114.04023,112.5172c-0.14453-0.53534-0.7207-1.68164-0.93652-1.45209 c-0.07227,0.07617,0.28809,0.84058,0.28809,1.22253c0.07227,0.15283,0.07227,0.76434-0.07227,0.76434 c-0.07227,0-0.07227-0.3819-0.14355-0.3819c-0.07227-0.07672-0.07227,0.53479-0.14453,0.68768 c-0.07227,0.15283-0.07227,0.3819-0.21582,0.45862c0-0.07672,0-0.22955-0.07227-0.30579 c-0.07129-0.07666-0.51489,2.35626-2.09277,2.19781c-0.14337-0.00745-0.63165-0.33905-0.71478-0.11401 c0,0-0.00397,0.0766-0.07611,0.07288c-0.00397,0.07605-0.36383,0.05731-0.43506,0.05359 c-0.21252-0.08734-0.50415-0.02625-0.7879-0.11725c-0.0119,0.2287,0.336,0.47675,0.48035,0.48425 c0.14337,0.00745,0.20361,0.23993,0.27582,0.24371c0.07117,0.00372,0.14728-0.0686,0.13934,0.08405 c-0.00397,0.07605-0.3559-0.09534-0.3559-0.09534c-0.07117-0.00366-0.1394-0.0835-0.20758-0.16388 c-0.1394-0.08356-0.3559-0.09479-0.41516-0.32776c0.00397-0.07611,0.0119-0.22876,0.0119-0.22876 c-0.3479-0.24799-0.56744-0.18262-0.84717-0.35028c-0.06818-0.08032-0.20758-0.16388-0.34796-0.2475 c-0.07214-0.00372-0.13544-0.1601-0.20361-0.24048c-0.07214-0.00372-0.21948,0.06537-0.35986-0.01874 c-0.1394-0.0835-0.19958-0.31653-0.41119-0.40381c-0.21552-0.01123-0.35193-0.17145-0.56744-0.18262 c-0.08008,0.14886,0.06421,0.15643,0.13641,0.16016c0.20758,0.16388,0.48334,0.40759,0.61877,0.56775 c0.06818,0.08038,0.20758,0.16388,0.20361,0.23999c0.06421,0.15643,0.14038,0.08411,0.20856,0.16394 c0.13141,0.23669,0.28271,0.09149,0.34698,0.24792c0.06421,0.15643,0.14429,0.00751,0.21155,0.08728 c0.07214,0.00378,0.13641,0.16022,0.13239,0.23682c-0.14825,0.06854-0.43597,0.05359-0.49921-0.10278 c-0.06824-0.07983,0.00793-0.15271-0.06427-0.15643c-0.13934-0.08356-0.28766-0.01501-0.35187-0.17145 c-0.06726-0.07977-0.13544-0.1601-0.14337-0.00745c-0.06421-0.15643-0.13245-0.23627-0.20361-0.23999 c-0.14435-0.00751-0.12848-0.31281-0.27185-0.32031c0,0-0.22345,0.14148-0.21552-0.01117 c0.00793-0.15271-0.14038-0.08362-0.21252-0.08734c-0.07117-0.00372-0.34698-0.24799-0.33502-0.47675 c0.01984-0.3819,0.13538,0.16016,0.13538,0.16016c0.07617-0.07281-0.06024-0.23303,0.01593-0.30536 c0.00793-0.15265,0.07214,0.00378,0.14429,0.00751c0.00403-0.0766,0.008-0.15265-0.06024-0.23297 c0.00397-0.07611-0.06421-0.15594-0.13239-0.23627c-0.06726-0.07977-0.14337-0.00751-0.20758-0.16388 c-0.0722-0.00378-0.14337-0.00751-0.1394-0.08356c-0.06818-0.08038-0.12848-0.31287-0.19568-0.39319 c-0.06818-0.07983-0.8114-1.03699-0.95178-1.12061c-0.13544-0.1601-0.20361-0.24048-0.34698-0.24792 c0.19965,0.31653,0.39929,0.63312,0.60284,0.8736c0.13245,0.23627,0.40826,0.47998,0.46356,0.789 c0.06421,0.15643,0.27972,0.16766,0.33997,0.4007c0.04834,0.46124-0.14734,0.0686-0.29962,0.21375 c-0.05231-0.38513-0.336-0.47675-0.31219-0.93475c-0.13934-0.0835-0.27576-0.24371-0.41119-0.40381 c-0.06421-0.15643-0.19568-0.39264-0.26385-0.47302c-0.33997-0.40015-0.24792-0.77832-0.31616-0.85815 c-1.07434-1.50995-1.68213-2.30701-2.00629-3.01251c-0.0672-0.07977-0.07117-0.00372-0.13141-0.23621 c0.00397-0.0766,0.00397-0.0766-0.06427-0.15643c0.00403-0.0766-0.06818-0.08032-0.13934-0.08405 c0.00397-0.07605-0.06421-0.15643-0.06024-0.23248c-0.0722-0.00378-1.11969-2.04791-1.11572-2.12445 c-0.0672-0.07983-0.0672-0.07983-0.0672-0.07983c0.00397-0.07654-0.06818-0.08032-0.06818-0.08032 c-0.06824-0.07983-0.06427-0.15643-0.0603-0.23248c-0.89117-1.76892-1.61151-4.17303-2.50452-5.73108 c-0.15649,0.06653-0.31158,0.13513-0.46918,0.19916c-1.65173,0.67145-3.60229,1.47748-5.14124,1.46191 c1.13251,2.99634,5.22406,10.90283,10.38855,15.82764c0.07227,0.07617,0.07227-0.15289,0.21582-0.07672 c0.14453,0.07672,0.14453,0.38245,0.28809,0.53534c0.07227,0,0.43164,0.45862,1.00781,0.84058 c0.7207,0.45862,1.58398,0.84058,1.65625,0.76434c0-0.15283-0.43164-0.45862-0.28809-0.45862 c0.14453,0,0.21582-0.07666,0.36035-0.07666c0.14355,0,0.21582,0.15283,0.36035,0.22955c0.07129,0,0.14355,0.15289,0.21582,0.30573 c0.07227,0.22906-0.14453,0-0.21582,0c-0.14453,0-0.2168-0.07666-0.36035,0.07623c0.14355,0.07617,0.28809,0.229,0.43164,0.229 c0.14453-0.07617,0.2168,0,0.36035,0.15289c0.21582,0.15289,0.50391,0.22961,0.71973,0.30579 c0.07227-0.15289-0.14355-0.30579-0.07129-0.38196c0.07129-0.07672,0.21582,0,0.28809,0c0.07129,0,0.14355,0.07617,0.21582,0.07617 c0.07129,0,0.14355-0.07617,0.14355-0.07617c0.07227,0,0.07227,0,0.14453,0c0.14355,0.07617,0.28809,0,0.43164,0 c0.07227,0,0.14453,0,0.21582,0.07617c0.07227,0,0.14453,0,0.14453,0c0.07227,0,0.07227-0.07617,0.07227-0.15289 c0.07129,0,0.28711-0.07617,0.35938,0c0.07227,0.07672-0.07227,0.15289-0.07227,0.15289 c0.07227,0.22961,0.14453,0.07672,0.28809,0.07672c0.2168-0.15289,0.57617,0,0.79199,0c0.07227-0.15289,0.2168,0,0.36035,0 c0.07227-0.07672,0.14453-0.07672,0.21582-0.15289c0.43262-0.45862,1.00879-0.30573,1.5127-0.53479 c-0.21582,0.15283-0.43262,0.22906-0.64844,0.3819c-0.14355,0.07617-0.28809,0.22906-0.43164,0.22906 c-0.28809,0.07672-0.50391,0.07672-0.7207,0.15289c-0.21582,0.07672-0.43164,0.15289-0.5752,0.22955 c-0.14453,0-0.28809-0.15283-0.36035-0.15283c-0.14453,0.07617-0.28809,0.07617-0.36035,0.07617 c-0.14355,0.07666-0.28809,0.07666-0.35938,0.07666c-0.14453,0.07617-0.28809,0-0.36035-0.07666 c-0.14453,0-0.21582,0.07666-0.28809,0c-0.07227-0.07617-0.14453-0.15289-0.21582-0.15289 c-0.14453-0.07617-0.36035-0.07617-0.50391,0.07672c0.35938,0.3819,0.86328,0.3819,1.2959,0.3819 c0.07227,0.07672,0.07227-0.07617,0.14355-0.07617c0.07227,0.07617,0.21582,0.15289,0.28809,0.07617 c0.14453-0.15289,0.64844,0.22906,2.08789-0.30573c1.08008-0.38196,1.87305-1.22253,2.37695-1.91022 c0.50391-0.7644,0.86426-1.83453,1.00781-2.75128C114.32734,113.96928,114.25605,113.35777,114.04023,112.5172z M111.8791,118.63072c0-0.07617,0.50488-0.68768,0.50488-0.7644C112.45527,118.01921,111.8791,118.63072,111.8791,118.63072z M112.5998,117.86632c-0.14453-0.15234,0.07227-0.15234,0.07227-0.15234 C112.67207,117.79015,112.67207,117.86632,112.5998,117.86632z"
                  transform="translate(438.90867 -118.995297)"
                  stroke-width="0"
                  stroke-linejoin="miter"
                  stroke-miterlimit="2"
                  opacity="0.5"
                ></path>
                <linearGradient
                  id="af1946a5-a953-4781-b53f-d1885df7d03f"
                  gradientUnits="userSpaceOnUse"
                  x1="85.10992"
                  y1="145.57999"
                  x2="93.37522"
                  y2="93.04938"
                >
                  <stop offset="0.33755" style="stop-color: #000000"></stop>
                  <stop
                    offset="0.52233"
                    style="stop-color: #000000; stop-opacity: 0.68377"
                  ></stop>
                  <stop
                    offset="0.92184"
                    style="stop-color: #000000; stop-opacity: 0"
                  ></stop>
                </linearGradient>
                <path
                  class="highlight"
                  fill="url(#af1946a5-a953-4781-b53f-d1885df7d03f)"
                  d="M98.84687,87.45717c0.14355-0.21631,1.08008-2.08838,0.93555-3.38428 c-0.14355-1.29639-1.15234-2.08838-1.7998-2.44824c-1.2959-0.72021-2.59277-1.15234-3.16895-1.22412 c-0.79199-0.14404-1.65527-0.28809-2.23145,0.28809c-0.07227,0.07178-0.07227,0.14404-0.07227,0.21582 c0,0.07227,0.07227,0.07227,0.14355,0.14404c1.00879,0.50391,1.00879,1.87207,0.7207,2.88037 c-2.88086,8.4248-7.63281,18.72168-7.63281,27.3623c0,2.3042,0.43164,4.46436,1.65625,6.12061 c0.93555,1.15186,2.01563,1.65576,3.0957,1.7998c0.36035,0.07227,0.79199,0.07227,1.00879,0.07227 c0.07129,0,0.50391-0.07227,0.50391-0.28809c0-0.07178-0.14453-0.14404-0.43262-0.35986 c-1.15137-0.86426-1.43945-2.23242-1.58398-3.52832v-0.43213c0-0.07227,0-0.14404,0-0.14404 c0-0.07227,0.07227-0.14404,0.07227-0.21582c0-0.07227-0.07227-0.28809-0.07227-0.36035 c0.14453-2.37598,0.86426-5.25635,1.08008-6.04834C93.04863,99.49737,97.66277,90.10302,98.84687,87.45717z"
                  transform="translate(438.90867 -118.995297)"
                  stroke-width="0"
                  stroke-linejoin="miter"
                  stroke-miterlimit="2"
                  opacity="0.5"
                ></path>
                <radialGradient
                  id="95be79ac-1370-4659-ae1d-ccf78199d217"
                  cx="103.11266"
                  cy="88.59048"
                  r="15.00628"
                  gradientUnits="userSpaceOnUse"
                  transform="translate(438.90867 -118.995297)"
                >
                  <stop
                    offset="0.40563"
                    style="stop-color: #000000; stop-opacity: 0"
                  ></stop>
                  <stop offset="0.79112" style="stop-color: #000000"></stop>
                </radialGradient>
                <path
                  class="highlight"
                  fill="url(#95be79ac-1370-4659-ae1d-ccf78199d217)"
                  d="M109.57471,80.3922c-0.05908,0.14191-0.07886,0.30896-0.07886,0.41193 c0.07007,0.5509,0.07007,0.96442,0,1.37793c0,0.06866-0.14233,0-0.07129,0.13782c0,0.20654,0,0.48224-0.07104,0.55139 c0,0.13782-0.2124,0.62-0.28369,0.75787c-0.07129,0.06866-0.14136,0.20648-0.14136,0.27563 c-0.07104,0.06873-0.14233,0-0.14233,0.13788c0,0.20654-0.07104,0.13782-0.14136,0.20654 c-1.7395,3.1524-4.01001,5.5741-6.28931,7.57727c0.90674,1.05011,2.04346,1.84302,3.22705,2.5899 c3.2395-2.74683,6.19971-7.20154,6.52588-9.60651C112.3103,83.32042,110.90552,80.59068,109.57471,80.3922z"
                  transform="translate(438.90867 -118.995297)"
                  stroke-width="0"
                  stroke-linejoin="miter"
                  stroke-miterlimit="2"
                  opacity="0.5"
                ></path>
              </g>
              <g
                id="path65401"
                aria-label="i"
                transform="translate(0 349.82200953) translate(617.7414129200002 -8.89345652) scale(2.86) translate(-553.4065 34.580682)"
              >
                <path
                  class="c1"
                  d="M99.60818,89.95131c0.14355-1.2959,0.57617-2.73633,0.14355-4.10449 c-0.14355-0.79199-0.28711-0.93604-0.21582-1.15186c0.14453-0.35986,1.22461-0.43213,2.30469-0.07227 c1.72754,0.64844,3.02441,1.58447,3.38379,3.24072c0.21582,1.2959-0.21582,2.16016-1.00781,2.87988 c-0.86426,0.86426-3.02441,1.94434-4.39258,1.44043C99.24783,91.7516,99.60818,90.52748,99.60818,89.95131z M95.86404,119.32973 c2.10431,0,3.98944-0.37024,6.74677-2.61432c0.26721-0.21753,0.5152-0.4577,0.76678-0.69318 c0.10327-0.09668,0.17914-0.19885,0.2699-0.30267c0.11566-0.1322,0.27753-0.24207,0.41272-0.35394 c0.19501-0.15668,0.41321-0.32703,0.57391-0.52173c0.07721-0.0929,0.13727-0.20288,0.14587-0.32678 c0.07361,0.00488,0.14587-0.00702,0.21332-0.03284c0.17413-0.06891,0.24768-0.24945,0.33606-0.39752 c0.10419-0.1756,0.25995-0.13947,0.38501-0.2876c0.25153-0.29285,2.48395-1.99713,2.73157-3.54169 c0.09912-0.61829-0.17358-1.65649-1.33929-1.93402c-0.27167,0.72137-1.79071,2.54181-4.01196,4.58832 c-2.11298,1.94666-4.40875,3.35217-5.28455,3.35217c-1.79907,0-0.5202-3.20001,0.14178-4.8551 c0.43262-0.93555,1.87207-3.95996,2.16016-5.04004c0.07227-0.14404-0.07227-0.28809,0.07227-0.43213 c0.14355-0.14404,0.21582-0.43213,0.36035-0.57617c0.43164-0.86377,2.16016-4.46436,2.51953-5.32813 c0.7207-1.80029-0.43164-2.52051-2.08789-3.67236c-0.79199-0.50391-1.72852-0.93604-2.44824-1.22412 s-1.51172-0.21631-1.65625,0.07178c-0.07227,0.14404,0.07227,0.36035,0.14453,0.79248 c0.28711,2.01611-3.74512,10.22461-4.53711,12.60107c-0.79199,2.23242-1.58398,6.84082-0.14355,9.2168 C93.05544,118.89809,94.42361,119.32973,95.86404,119.32973z"
                  transform="translate(461.871172 -118.966909)"
                  stroke-width="0"
                  stroke-linejoin="miter"
                  stroke-miterlimit="2"
                  fill="#25ff81"
                  stroke="#25ff81"
                ></path>
                <radialGradient
                  id="c0e9dd07-4c32-4ef6-be6b-b3a963698714"
                  cx="111.9933"
                  cy="95.16357"
                  r="31.06255"
                  gradientUnits="userSpaceOnUse"
                  transform="translate(461.871172 -118.966909)"
                >
                  <stop
                    offset="0"
                    style="stop-color: #000000; stop-opacity: 0"
                  ></stop>
                  <stop
                    offset="0.53068"
                    style="stop-color: #000000; stop-opacity: 0"
                  ></stop>
                  <stop offset="1" style="stop-color: #000000"></stop>
                </radialGradient>
                <path
                  class="highlight"
                  fill="url(#c0e9dd07-4c32-4ef6-be6b-b3a963698714)"
                  d="M99.94183,115.34194c-0.92853,0.57843-1.70593,0.92194-2.13715,0.92194 c-1.79913,0-0.52026-3.19995,0.14178-4.85504c0.43262-0.93555,1.87207-3.95996,2.16016-5.04004 c0.07227-0.14404-0.07227-0.28809,0.07227-0.43213c0.14355-0.14404,0.21582-0.43213,0.36035-0.57617 c0.43164-0.86377,2.16016-4.46436,2.51953-5.32813c0.7207-1.80029-0.43164-2.52051-2.08789-3.67236 c-0.79199-0.50391-1.72852-0.93604-2.44824-1.22412s-1.51172-0.21631-1.65625,0.07178 c-0.07227,0.14404,0.07227,0.36035,0.14453,0.79248c0.28711,2.01611-3.74512,10.22461-4.53711,12.60107 c-0.24188,0.68176-0.47571,1.59595-0.65399,2.5896C91.44781,117.62081,95.74286,118.52084,99.94183,115.34194z"
                  transform="translate(461.871172 -118.966909)"
                  stroke-width="0"
                  stroke-linejoin="miter"
                  stroke-miterlimit="2"
                  opacity="0.5"
                ></path>
                <linearGradient
                  id="c1ce4f97-b988-4057-b6e7-1d983d6c045c"
                  gradientUnits="userSpaceOnUse"
                  x1="111.76465"
                  y1="100.12929"
                  x2="97.56057"
                  y2="113.6599"
                >
                  <stop offset="0.31811" style="stop-color: #000000"></stop>
                  <stop
                    offset="0.50903"
                    style="stop-color: #000000; stop-opacity: 0.68377"
                  ></stop>
                  <stop
                    offset="0.92184"
                    style="stop-color: #000000; stop-opacity: 0"
                  ></stop>
                </linearGradient>
                <path
                  class="highlight"
                  fill="url(#c1ce4f97-b988-4057-b6e7-1d983d6c045c)"
                  d="M107.10114,108.32345c-0.27167,0.72137-1.79071,2.54175-4.01196,4.58826 c-1.07251,0.9881-2.19025,1.83405-3.14734,2.43024c-4.19897,3.17889-8.49402,2.27887-8.12201-4.15112 c-0.40552,2.26013-0.49011,4.97681,0.51044,6.6272c0.71973,1.08008,2.08789,1.51172,3.52832,1.51172 c2.10425,0,3.98938-0.37024,6.7467-2.61438c0.26721-0.21747,0.5152-0.4577,0.76678-0.69318 c0.10327-0.09668,0.17914-0.19885,0.2699-0.30267c0.11566-0.1322,0.27753-0.24207,0.41272-0.35394 c0.19501-0.15668,0.41321-0.32703,0.57391-0.52173c0.07721-0.0929,0.13727-0.20288,0.14587-0.32678 c0.07361,0.00488,0.14587-0.00702,0.21332-0.03284c0.17413-0.06891,0.24768-0.24945,0.33606-0.39752 c0.10419-0.1756,0.25995-0.13947,0.38501-0.2876c0.25153-0.29285,2.48395-1.99707,2.73157-3.54163 C108.53955,109.63918,108.26685,108.60098,107.10114,108.32345z"
                  transform="translate(461.871172 -118.966909)"
                  stroke-width="0"
                  stroke-linejoin="miter"
                  stroke-miterlimit="2"
                  opacity="0.5"
                ></path>
                <linearGradient
                  id="de5bbcb8-e9d7-4c35-9850-8906c3953b72"
                  gradientUnits="userSpaceOnUse"
                  x1="101.90133"
                  y1="101.48849"
                  x2="102.88092"
                  y2="71.97829"
                >
                  <stop offset="0.19068" style="stop-color: #000000"></stop>
                  <stop
                    offset="0.50638"
                    style="stop-color: #000000; stop-opacity: 0"
                  ></stop>
                </linearGradient>
                <path
                  class="highlight"
                  fill="url(#de5bbcb8-e9d7-4c35-9850-8906c3953b72)"
                  d="M99.6027,89.95131c0.14355-1.2959,0.57617-2.73633,0.14355-4.10449 c-0.14355-0.79199-0.28711-0.93604-0.21582-1.15186c0.14453-0.35986,1.22461-0.43213,2.30469-0.07227 c1.72754,0.64844,3.02441,1.58447,3.38379,3.24072c0.21582,1.2959-0.21582,2.16016-1.00781,2.87988 c-0.86426,0.86426-3.02441,1.94434-4.39258,1.44043C99.24235,91.7516,99.6027,90.52748,99.6027,89.95131z"
                  transform="translate(461.871172 -118.966909)"
                  stroke-width="0"
                  stroke-linejoin="miter"
                  stroke-miterlimit="2"
                  opacity="0.5"
                ></path>
              </g>
              <g
                id="path65403"
                aria-label="t"
                transform="translate(0 349.82200953) translate(656.16745772 -8.060590199999993) scale(2.86) translate(-566.84218 34.28947)"
              >
                <path
                  class="c1"
                  d="M94.11961,118.53773c0.21582,0.14453,0.43164,0.21582,0.64844,0.28809 c0.07129,0.14453,0.07129,0.14453,0.28809,0.21582c0.64746,0.14453,1.08008,0.21582,1.72754,0.21582 c1.15198,0,2.75024-0.08887,4.89453-1.97516c0.25879-0.2276,0.51526-0.4577,0.76685-0.69318 c0.10327-0.09668,0.1792-0.19885,0.2699-0.30267c0.1156-0.1322,0.27747-0.24207,0.41272-0.35394 c0.19507-0.15668,0.41321-0.32703,0.57397-0.52173c0.07715-0.0929,0.13721-0.20288,0.14575-0.32678 c0.07373,0.00488,0.146-0.00702,0.21338-0.03284c0.17407-0.06891,0.24768-0.24945,0.33606-0.39752 c0.10413-0.1756,0.25989-0.13947,0.38501-0.2876c0.25159-0.29285,2.48401-2.56403,2.73157-4.10858 c0.09912-0.61829-0.17358-1.65649-1.33936-1.93402c-0.27161,0.72137-1.79065,3.1087-4.01196,5.15521 c-2.11292,1.94666-3.6106,3.00842-4.64893,3.00842c-0.75525,0-1.13647-1.69745-0.82275-3.9494 c0.60229-4.32123,3.12427-10.66547,5.09985-14.73309c-0.00562-0.02185-0.00354-0.04639,0.0127-0.07166 c0.04004-0.06256,0.07666-0.12671,0.11499-0.19012c0.18695-0.38159,0.36029-0.74152,0.52417-1.08618 c1.08014,0.10236,2.26709,0.17767,3.64264,0.18854c0.78296,0.00616,1.48669-0.02966,1.93237-0.14111 c1.43945-0.36035,1.94434-1.65625,1.87207-2.80811c-0.07227-1.0083-0.50391-2.23242-1.94434-2.73633 c-0.43164-0.14404-1.08008-0.14404-1.15234,0.14404c-0.07129,0.21582,0.14453,0.50391,0,0.79199 c-0.07227,0.14502-0.45477,0.23499-0.94537,0.27942c-0.26233,0.02374-0.83582,0.00293-1.56-0.04108 c0.52515-1.50299,0.56097-2.17737,0.56097-2.68658c0.07227-0.79199-0.21582-1.65625-0.64746-2.23242 c-1.08008-1.36816-2.37598-2.23193-3.3125-2.44824c-0.86426-0.21582-1.22363,0-1.2959,0.21631 c0,0.14404,0.14355,0.21582,0.36035,0.64795c0.35938,0.72021-0.2168,2.16016-0.50488,2.80811 c-0.40863,1.09094-0.81494,2.16699-1.21625,3.2124c-0.54248-0.04205-0.94073-0.06775-1.08478-0.06293 c-0.75623,0.02539-1.70807,0.12134-2.45087,0.30707c-2.59277,0.72021-3.3125,1.36816-3.95996,2.16016 c-0.57617,0.64795-0.79297,1.43994-0.50488,1.65625c0.28809,0.14404,0.7207-0.07227,1.72852-0.21631 c1.78864-0.12341,3.36432,0.06989,4.27789,0.12799c0.13214,0.0141,0.26593,0.03339,0.3985,0.0495 c-0.21252,0.51324-0.42279,1.01337-0.62811,1.48444c-2.27075,5.20953-4.04297,8.71912-4.33643,12.23553 c-0.14355,1.51172-0.28809,2.95215,0.21582,4.39258h0.07227c0.14355,0.07129,0.14355,0.14355,0.21582,0.35938v0.28809 c-0.21582-0.07129-0.14355-0.35938-0.21582-0.50391h-0.07227c-0.14355,0.21582,0.07227,0.86426,0.21582,1.15234 c0.07227,0.28809,0.14453,0.64746,0.36035,0.93555l0.07227,0.14453c0.07227,0,0.07227,0,0.14355,0 c0.07227,0,0.07227,0,0.14453,0.14355c0.14355,0.14453,0.28809,0.2168,0.36035,0.28809c0.07129,0,0.21582,0.07227,0.14355,0.14453 c0,0.06976-0.26685,0.00537-0.35034,0.00079c0.01978,0.04541,0.06226,0.21503,0.06226,0.21503 c0,0.07227,0.14453,0.14355,0.14453,0.21582c0.07129,0.14453,0.07129,0.21582,0.21582,0.28809 c0.07129,0.07227,0.21582,0.14453,0.35938,0.28809C94.11961,118.10609,93.6157,118.39418,94.11961,118.53773z M94.55125,118.24965 c0.14453,0.07227,0.2168,0.21582,0.2168,0.36035C94.62351,118.53773,94.40769,118.39418,94.55125,118.24965z M94.33543,117.96156 c-0.07129-0.14355-0.28809-0.21582-0.28809-0.43164C94.19187,117.60219,94.40769,117.67348,94.33543,117.96156z M93.54343,117.24184v-0.14453c0.14453,0,0.14453,0.14453,0.14453,0.2168C93.6157,117.3141,93.54343,117.24184,93.54343,117.24184z "
                  transform="translate(476.738075 -118.966827)"
                  stroke-width="0"
                  stroke-linejoin="miter"
                  stroke-miterlimit="2"
                  fill="#25ff81"
                  stroke="#25ff81"
                ></path>
                <linearGradient
                  id="058c66dd-2e01-49ed-82c1-3038e3bce502"
                  gradientUnits="userSpaceOnUse"
                  x1="102.45409"
                  y1="86.0569"
                  x2="99.43739"
                  y2="101.76887"
                >
                  <stop
                    offset="0.09602"
                    style="stop-color: #000000; stop-opacity: 0"
                  ></stop>
                  <stop
                    offset="0.18912"
                    style="stop-color: #000000; stop-opacity: 0.27558"
                  ></stop>
                  <stop
                    offset="0.31424"
                    style="stop-color: #000000; stop-opacity: 0.64595"
                  ></stop>
                  <stop offset="0.43384" style="stop-color: #000000"></stop>
                  <stop offset="0.44514" style="stop-color: #000000"></stop>
                  <stop offset="0.5647" style="stop-color: #000000"></stop>
                  <stop
                    offset="0.63472"
                    style="stop-color: #000000; stop-opacity: 0.83916"
                  ></stop>
                  <stop
                    offset="0.74105"
                    style="stop-color: #000000; stop-opacity: 0.59488"
                  ></stop>
                  <stop
                    offset="0.85713"
                    style="stop-color: #000000; stop-opacity: 0.32822"
                  ></stop>
                  <stop
                    offset="1"
                    style="stop-color: #000000; stop-opacity: 0"
                  ></stop>
                </linearGradient>
                <path
                  class="highlight"
                  fill="url(#058c66dd-2e01-49ed-82c1-3038e3bce502)"
                  d="M98.23145,91.65151c1.53589,0.11914,4.26996,0.3739,6.05566,0.48248 c0.52521-1.50299,0.56104-2.17737,0.56104-2.68658c0.07227-0.79199-0.21582-1.65625-0.64746-2.23242 c-1.08008-1.36816-2.37598-2.23193-3.3125-2.44824c-0.86426-0.21582-1.22363,0-1.2959,0.21631 c0,0.14404,0.14355,0.21582,0.36035,0.64795c0.35938,0.72021-0.2168,2.16016-0.50488,2.80811 C99.03913,89.53005,98.63276,90.6061,98.23145,91.65151z"
                  transform="translate(476.738075 -118.966827)"
                  stroke-width="0"
                  stroke-linejoin="miter"
                  stroke-miterlimit="2"
                  opacity="0.5"
                ></path>
                <linearGradient
                  id="1f37c89d-40ab-48e9-8067-6640316d2175"
                  gradientUnits="userSpaceOnUse"
                  x1="103.75771"
                  y1="87.93309"
                  x2="101.00199"
                  y2="102.28584"
                >
                  <stop
                    offset="0.0433"
                    style="stop-color: #000000; stop-opacity: 0"
                  ></stop>
                  <stop
                    offset="0.15093"
                    style="stop-color: #000000; stop-opacity: 0.27558"
                  ></stop>
                  <stop
                    offset="0.29557"
                    style="stop-color: #000000; stop-opacity: 0.64595"
                  ></stop>
                  <stop offset="0.43384" style="stop-color: #000000"></stop>
                  <stop offset="0.44121" style="stop-color: #000000"></stop>
                  <stop offset="0.51917" style="stop-color: #000000"></stop>
                  <stop
                    offset="0.66232"
                    style="stop-color: #000000; stop-opacity: 0.70229"
                  ></stop>
                  <stop
                    offset="0.86421"
                    style="stop-color: #000000; stop-opacity: 0.2824"
                  ></stop>
                  <stop
                    offset="1"
                    style="stop-color: #000000; stop-opacity: 0"
                  ></stop>
                </linearGradient>
                <path
                  class="highlight"
                  fill="url(#1f37c89d-40ab-48e9-8067-6640316d2175)"
                  d="M106.17408,108.32345c-0.27167,0.72137-1.79071,3.1087-4.01196,5.15521 c-2.11298,1.94666-3.6106,3.00842-4.64899,3.00842c-0.75525,0-1.13654-1.69745-0.82269-3.9494 c0.60229-4.32123,3.12421-10.66547,5.09985-14.73309c-0.00568-0.02185-0.0036-0.04639,0.01257-0.07166 c0.0401-0.06256,0.07678-0.12671,0.11505-0.19012c0.18695-0.38159,0.36029-0.74152,0.52417-1.08618 c-2.32501-0.22028-4.09839-0.5755-5.80621-0.78339c-0.21252,0.51324-0.42279,1.01337-0.62811,1.48444 c-2.27069,5.20953-4.04303,8.71912-4.33636,12.23553c-0.14355,1.51172-0.28809,2.95215,0.21582,4.39258h0.07227 c0.14355,0.07129,0.14355,0.14355,0.21582,0.35938v0.28809c-0.21582-0.07129-0.14355-0.35938-0.21582-0.50391h-0.07227 c-0.14355,0.21582,0.07227,0.86426,0.21582,1.15234c0.07227,0.28809,0.14453,0.64746,0.36035,0.93555l0.07227,0.14453 c0.07227,0,0.07227,0,0.14355,0c0.07227,0,0.07227,0,0.14453,0.14355c0.14355,0.14453,0.28809,0.2168,0.36035,0.28809 c0.07129,0,0.21582,0.07227,0.14355,0.14453c0,0.06976-0.26685,0.00537-0.3504,0.00079 c0.01971,0.04541,0.06232,0.21503,0.06232,0.21503c0,0.07227,0.14453,0.14355,0.14453,0.21582 c0.07129,0.14453,0.07129,0.21582,0.21582,0.28809c0.07129,0.07227,0.21582,0.14453,0.35938,0.28809 c0.36035,0.36035-0.14355,0.64844,0.36035,0.79199c0.21582,0.14453,0.43164,0.21582,0.64844,0.28809 c0.07129,0.14453,0.07129,0.14453,0.28809,0.21582c0.64746,0.14453,1.08008,0.21582,1.72754,0.21582 c1.15192,0,2.75024-0.08887,4.89453-1.97516c0.25873-0.2276,0.5152-0.4577,0.76678-0.69318 c0.10327-0.09668,0.17914-0.19885,0.2699-0.30267c0.11566-0.1322,0.27753-0.24207,0.41272-0.35394 c0.19501-0.15668,0.41321-0.32703,0.57391-0.52173c0.07721-0.0929,0.13727-0.20288,0.14587-0.32678 c0.07361,0.00488,0.14587-0.00702,0.21332-0.03284c0.17413-0.06891,0.24768-0.24945,0.33606-0.39752 c0.10419-0.1756,0.25995-0.13947,0.38501-0.2876c0.25153-0.29285,2.48395-2.56403,2.73157-4.10858 C107.6125,109.63918,107.33979,108.60098,106.17408,108.32345z"
                  transform="translate(476.738075 -118.966827)"
                  stroke-width="0"
                  stroke-linejoin="miter"
                  stroke-miterlimit="2"
                  opacity="0.5"
                ></path>
                <radialGradient
                  id="7123acc6-21ac-46dd-8456-bae447496b1f"
                  cx="113.41836"
                  cy="93.02072"
                  r="37.67254"
                  gradientUnits="userSpaceOnUse"
                  transform="translate(476.738075 -118.966827)"
                >
                  <stop
                    offset="0"
                    style="stop-color: #000000; stop-opacity: 0"
                  ></stop>
                  <stop
                    offset="0.54416"
                    style="stop-color: #000000; stop-opacity: 0"
                  ></stop>
                  <stop offset="0.8841" style="stop-color: #000000"></stop>
                </radialGradient>
                <path
                  class="highlight"
                  fill="url(#7123acc6-21ac-46dd-8456-bae447496b1f)"
                  d="M96.69042,112.53768c0.44373-3.18365,1.93024-7.461,3.4718-11.1214 c-0.52496-0.35193-1.04504-0.71118-1.54761-1.09198c-0.91876-0.69617-2.14001-1.29266-3.09564-2.05609 c-2.0296,4.6001-3.57593,7.86859-3.8476,11.125c-0.05823,0.61304-0.11426,1.21393-0.12946,1.80829 c0.85767,6.72168,5.36206,6.74994,8.39691,4.15375c-0.99835,0.73749-1.79779,1.13184-2.42572,1.13184 C96.75787,116.48708,96.37658,114.78963,96.69042,112.53768z"
                  transform="translate(476.738075 -118.966827)"
                  stroke-width="0"
                  stroke-linejoin="miter"
                  stroke-miterlimit="2"
                  opacity="0.5"
                ></path>
                <radialGradient
                  id="c8b40ea2-7da9-4f45-a274-11baee57d7ac"
                  cx="98.4232"
                  cy="79.98153"
                  r="25.65463"
                  gradientUnits="userSpaceOnUse"
                  transform="translate(476.738075 -118.966827)"
                >
                  <stop
                    offset="0"
                    style="stop-color: #000000; stop-opacity: 0"
                  ></stop>
                  <stop
                    offset="0.51616"
                    style="stop-color: #000000; stop-opacity: 0"
                  ></stop>
                  <stop offset="0.72389" style="stop-color: #000000"></stop>
                </radialGradient>
                <path
                  class="highlight"
                  fill="url(#c8b40ea2-7da9-4f45-a274-11baee57d7ac)"
                  d="M108.08466,94.87507c1.02359-1.22018,1.06886-4.01007-1.29565-3.70787 c-0.02222,0.20758,0.13477,0.46661,0.00342,0.72845c-0.07227,0.14502-0.45459,0.23492-0.94531,0.27942 c-0.59497,0.05389-2.74976-0.1156-4.77417-0.28607c-4.56152-0.26471-6.26245,0.16864-8.17529,1.02454 c-1.45752,0.65222-2.79284,2.45775-2.31306,2.82687c0.28597-0.02707,0.69781-0.14787,1.37482-0.24465 c1.7887-0.12341,3.3645,0.06989,4.27795,0.12799c0.79919,0.08539,1.60803,0.21106,2.46545,0.34418 C104.30529,96.44468,106.72925,96.49079,108.08466,94.87507z"
                  transform="translate(476.738075 -118.966827)"
                  stroke-width="0"
                  stroke-linejoin="miter"
                  stroke-miterlimit="2"
                  opacity="0.5"
                ></path>
                <linearGradient
                  id="f36b8809-6b77-4d69-be5d-f69fabdbfdf7"
                  gradientUnits="userSpaceOnUse"
                  x1="109.28893"
                  y1="99.31984"
                  x2="94.68689"
                  y2="117.04433"
                >
                  <stop offset="0.21023" style="stop-color: #000000"></stop>
                  <stop
                    offset="0.43527"
                    style="stop-color: #000000; stop-opacity: 0.68377"
                  ></stop>
                  <stop
                    offset="0.92184"
                    style="stop-color: #000000; stop-opacity: 0"
                  ></stop>
                </linearGradient>
                <path
                  class="highlight"
                  fill="url(#f36b8809-6b77-4d69-be5d-f69fabdbfdf7)"
                  d="M106.17402,108.32345c-0.27161,0.72137-1.79065,3.1087-4.01196,5.15521 c-0.83496,0.76929-1.57031,1.39423-2.22278,1.87622c-3.03479,2.59656-7.53967,2.56854-8.39734-4.15344 c-0.02234,0.87134,0.04565,1.72803,0.34521,2.58435h0.07227c0.14355,0.07129,0.14355,0.14355,0.21582,0.35938v0.28809 c-0.21582-0.07129-0.14355-0.35938-0.21582-0.50391h-0.07227c-0.14355,0.21582,0.07227,0.86426,0.21582,1.15234 c0.07227,0.28809,0.14453,0.64746,0.36035,0.93555l0.07227,0.14453c0.07227,0,0.07227,0,0.14355,0 c0.07227,0,0.07227,0,0.14453,0.14355c0.14355,0.14453,0.28809,0.2168,0.36035,0.28809c0.07129,0,0.21582,0.07227,0.14355,0.14453 c0,0.06976-0.26685,0.00537-0.35034,0.00079c0.01978,0.04541,0.06226,0.21503,0.06226,0.21503 c0,0.07227,0.14453,0.14355,0.14453,0.21582c0.07129,0.14453,0.07129,0.21582,0.21582,0.28809 c0.07129,0.07227,0.21582,0.14453,0.35938,0.28809c0.36035,0.36035-0.14355,0.64844,0.36035,0.79199 c0.21582,0.14453,0.43164,0.21582,0.64844,0.28809c0.07129,0.14453,0.07129,0.14453,0.28809,0.21582 c0.64746,0.14453,1.08008,0.21582,1.72754,0.21582c1.15198,0,2.75024-0.08887,4.89453-1.97516 c0.25879-0.2276,0.51526-0.4577,0.76685-0.69318c0.10327-0.09668,0.1792-0.19885,0.2699-0.30267 c0.1156-0.1322,0.27747-0.24207,0.41272-0.35394c0.19507-0.15668,0.41321-0.32703,0.57397-0.52173 c0.07715-0.0929,0.13721-0.20288,0.14575-0.32678c0.07373,0.00488,0.146-0.00702,0.21338-0.03284 c0.17407-0.06891,0.24768-0.24945,0.33606-0.39752c0.10413-0.1756,0.25989-0.13947,0.38501-0.2876 c0.25159-0.29285,2.48401-2.56403,2.73157-4.10858C107.6125,109.63918,107.33979,108.60098,106.17402,108.32345z M93.5434,117.24184v-0.14453c0.14453,0,0.14453,0.14453,0.14453,0.2168C93.61567,117.31411,93.5434,117.24184,93.5434,117.24184z M94.3354,117.96157c-0.07129-0.14355-0.28809-0.21582-0.28809-0.43164C94.19184,117.6022,94.40766,117.67348,94.3354,117.96157z M94.55122,118.24966c0.14453,0.07227,0.2168,0.21582,0.2168,0.36035C94.62348,118.53774,94.40766,118.39419,94.55122,118.24966z"
                  transform="translate(476.738075 -118.966827)"
                  stroke-width="0"
                  stroke-linejoin="miter"
                  stroke-miterlimit="2"
                  opacity="0.5"
                ></path>
              </g>
            </g>
            <image
              xlink:href=""
              id="icon"
              x="0"
              y="0"
              style="display: none"
            ></image>
          </g>
        </g>
      </svg>